<svg version="1.1" id="pickles2-logo" xmlns="http://www.w3.org/2000/svg" xmlns:xlink="http://www.w3.org/1999/xlink" x="0px"
	 y="0px" width="40px" height="40px" viewBox="0 0 70.8 70.8" enable-background="new 0 0 70.8 70.8" xml:space="preserve">
<g>
	<path fill="#000000" d="M17,23.2c6.3,0,9.4,2.6,9.4,7.4c0,5.1-3.5,8.4-9.8,8.4c-0.8,0-1.8,0-2.8-0.1v9.3h-2.5V23.8
		C13.4,23.4,15.3,23.2,17,23.2z M20.8,36c1.8-0.8,3-2.6,3-5.1c0-3.7-2.3-5.4-6.7-5.4c-1.1,0-2.2,0.1-3.3,0.3v11
		c0.8,0.1,1.7,0.1,2.5,0.1C18.1,36.8,19.7,36.6,20.8,36z"/>
	<path fill="#000000" d="M32.4,31.1l4.1,6.4l0,0l4.2-6.4H43c-0.1,0.5-0.3,1-0.7,1.5l-4.5,6.6l5.1,7.5c0.3,0.5,0.6,1,0.6,1.5h-2.3
		l-4.9-7.3l0,0l-4.8,7.3h-2.3c0-0.5,0.3-1,0.7-1.5l5-7.6l-4.4-6.5c-0.3-0.5-0.6-1-0.7-1.5H32.4z"/>
	<path fill="#000000" d="M53.3,23.2c4.9,0,7.2,3.3,7.2,7.1c0,4.7-3.4,8.6-7.9,13.1l-2.7,2.7h11l0.1,2.2H47.1L46.8,46l3.3-3.3
		c4.8-4.8,7.7-8.4,7.7-12.2c0-2.8-1.5-5-4.7-5c-1.7,0-3.4,0.7-4.9,1.7L47,25.6C48.7,23.9,51,23.2,53.3,23.2z"/>
</g>
<path fill="#000000" d="M0,0v70.8h70.8V0H0z M2,68.8V2h66.8v66.8H2z"/>
</svg>
