<?xml version="1.0" encoding="UTF-8" standalone="no"?>
<!DOCTYPE svg PUBLIC "-//W3C//DTD SVG 1.1//EN"
 "http://www.w3.org/Graphics/SVG/1.1/DTD/svg11.dtd">
<!-- Generated by graphviz version 2.40.1 (20161225.0304)
 -->
<!-- Title: G Pages: 1 -->
<svg width="189pt" height="1216pt"
 viewBox="0.00 0.00 189.00 1216.00" xmlns="http://www.w3.org/2000/svg" xmlns:xlink="http://www.w3.org/1999/xlink">
<g id="graph0" class="graph" transform="scale(1 1) rotate(0) translate(4 1212)">
<title>G</title>
<polygon fill="#ffffff" stroke="transparent" points="-4,4 -4,-1212 185,-1212 185,4 -4,4"/>
<g id="clust1" class="cluster">
<title>cluster_Global</title>
<path fill="none" stroke="#c0c0c0" d="M20,-8C20,-8 161,-8 161,-8 167,-8 173,-14 173,-20 173,-20 173,-1188 173,-1188 173,-1194 167,-1200 161,-1200 161,-1200 20,-1200 20,-1200 14,-1200 8,-1194 8,-1188 8,-1188 8,-20 8,-20 8,-14 14,-8 20,-8"/>
<text text-anchor="middle" x="90.5" y="-1187.2" font-family="Times,serif" font-size="11.00" fill="#c0c0c0">Global</text>
</g>
<g id="clust2" class="cluster">
<title>cluster_\picklesFramework2</title>
<path fill="none" stroke="#c0c0c0" d="M28,-16C28,-16 153,-16 153,-16 159,-16 165,-22 165,-28 165,-28 165,-1160 165,-1160 165,-1166 159,-1172 153,-1172 153,-1172 28,-1172 28,-1172 22,-1172 16,-1166 16,-1160 16,-1160 16,-28 16,-28 16,-22 22,-16 28,-16"/>
<text text-anchor="middle" x="90.5" y="-1159.2" font-family="Times,serif" font-size="11.00" fill="#c0c0c0">picklesFramework2</text>
</g>
<g id="clust3" class="cluster">
<title>cluster_\picklesFramework2\processors</title>
<path fill="none" stroke="#c0c0c0" d="M36,-716C36,-716 145,-716 145,-716 151,-716 157,-722 157,-728 157,-728 157,-1132 157,-1132 157,-1138 151,-1144 145,-1144 145,-1144 36,-1144 36,-1144 30,-1144 24,-1138 24,-1132 24,-1132 24,-728 24,-728 24,-722 30,-716 36,-716"/>
<text text-anchor="middle" x="90.5" y="-1131.2" font-family="Times,serif" font-size="11.00" fill="#c0c0c0">processors</text>
</g>
<g id="clust4" class="cluster">
<title>cluster_\picklesFramework2\processors\scss</title>
<path fill="none" stroke="#c0c0c0" d="M67.5,-1044C67.5,-1044 113.5,-1044 113.5,-1044 119.5,-1044 125.5,-1050 125.5,-1056 125.5,-1056 125.5,-1104 125.5,-1104 125.5,-1110 119.5,-1116 113.5,-1116 113.5,-1116 67.5,-1116 67.5,-1116 61.5,-1116 55.5,-1110 55.5,-1104 55.5,-1104 55.5,-1056 55.5,-1056 55.5,-1050 61.5,-1044 67.5,-1044"/>
<text text-anchor="middle" x="90.5" y="-1103.2" font-family="Times,serif" font-size="11.00" fill="#c0c0c0">scss</text>
</g>
<g id="clust5" class="cluster">
<title>cluster_\picklesFramework2\processors\encodingconverter</title>
<path fill="none" stroke="#c0c0c0" d="M44,-964C44,-964 137,-964 137,-964 143,-964 149,-970 149,-976 149,-976 149,-1024 149,-1024 149,-1030 143,-1036 137,-1036 137,-1036 44,-1036 44,-1036 38,-1036 32,-1030 32,-1024 32,-1024 32,-976 32,-976 32,-970 38,-964 44,-964"/>
<text text-anchor="middle" x="90.5" y="-1023.2" font-family="Times,serif" font-size="11.00" fill="#c0c0c0">encodingconverter</text>
</g>
<g id="clust6" class="cluster">
<title>cluster_\picklesFramework2\processors\ssi</title>
<path fill="none" stroke="#c0c0c0" d="M67.5,-884C67.5,-884 113.5,-884 113.5,-884 119.5,-884 125.5,-890 125.5,-896 125.5,-896 125.5,-944 125.5,-944 125.5,-950 119.5,-956 113.5,-956 113.5,-956 67.5,-956 67.5,-956 61.5,-956 55.5,-950 55.5,-944 55.5,-944 55.5,-896 55.5,-896 55.5,-890 61.5,-884 67.5,-884"/>
<text text-anchor="middle" x="90.5" y="-943.2" font-family="Times,serif" font-size="11.00" fill="#c0c0c0">ssi</text>
</g>
<g id="clust7" class="cluster">
<title>cluster_\picklesFramework2\processors\autoindex</title>
<path fill="none" stroke="#c0c0c0" d="M64,-804C64,-804 117,-804 117,-804 123,-804 129,-810 129,-816 129,-816 129,-864 129,-864 129,-870 123,-876 117,-876 117,-876 64,-876 64,-876 58,-876 52,-870 52,-864 52,-864 52,-816 52,-816 52,-810 58,-804 64,-804"/>
<text text-anchor="middle" x="90.5" y="-863.2" font-family="Times,serif" font-size="11.00" fill="#c0c0c0">autoindex</text>
</g>
<g id="clust8" class="cluster">
<title>cluster_\picklesFramework2\processors\md</title>
<path fill="none" stroke="#c0c0c0" d="M67.5,-724C67.5,-724 113.5,-724 113.5,-724 119.5,-724 125.5,-730 125.5,-736 125.5,-736 125.5,-784 125.5,-784 125.5,-790 119.5,-796 113.5,-796 113.5,-796 67.5,-796 67.5,-796 61.5,-796 55.5,-790 55.5,-784 55.5,-784 55.5,-736 55.5,-736 55.5,-730 61.5,-724 67.5,-724"/>
<text text-anchor="middle" x="90.5" y="-783.2" font-family="Times,serif" font-size="11.00" fill="#c0c0c0">md</text>
</g>
<g id="clust9" class="cluster">
<title>cluster_\picklesFramework2\commands</title>
<path fill="none" stroke="#c0c0c0" d="M61.5,-420C61.5,-420 119.5,-420 119.5,-420 125.5,-420 131.5,-426 131.5,-432 131.5,-432 131.5,-696 131.5,-696 131.5,-702 125.5,-708 119.5,-708 119.5,-708 61.5,-708 61.5,-708 55.5,-708 49.5,-702 49.5,-696 49.5,-696 49.5,-432 49.5,-432 49.5,-426 55.5,-420 61.5,-420"/>
<text text-anchor="middle" x="90.5" y="-695.2" font-family="Times,serif" font-size="11.00" fill="#c0c0c0">commands</text>
</g>
<g id="clust10" class="cluster">
<title>cluster_\picklesFramework2\theme</title>
<path fill="none" stroke="#c0c0c0" d="M64,-286C64,-286 117,-286 117,-286 123,-286 129,-292 129,-298 129,-298 129,-400 129,-400 129,-406 123,-412 117,-412 117,-412 64,-412 64,-412 58,-412 52,-406 52,-400 52,-400 52,-298 52,-298 52,-292 58,-286 64,-286"/>
<text text-anchor="middle" x="90.5" y="-399.2" font-family="Times,serif" font-size="11.00" fill="#c0c0c0">theme</text>
</g>
<!-- \\picklesFramework2\\processors\\scss\\ext -->
<g id="node1" class="node">
<title>\\picklesFramework2\\processors\\scss\\ext</title>
<polygon fill="none" stroke="#000000" points="117.5,-1088 63.5,-1088 63.5,-1052 117.5,-1052 117.5,-1088"/>
<text text-anchor="middle" x="90.5" y="-1067.2" font-family="Courier,monospace" font-size="11.00" fill="#000000">ext</text>
</g>
<!-- \\picklesFramework2\\processors\\encodingconverter\\encodingconverter -->
<g id="node2" class="node">
<title>\\picklesFramework2\\processors\\encodingconverter\\encodingconverter</title>
<polygon fill="none" stroke="#000000" points="141,-1008 40,-1008 40,-972 141,-972 141,-1008"/>
<text text-anchor="middle" x="90.5" y="-987.2" font-family="Courier,monospace" font-size="11.00" fill="#000000">encodingconverter</text>
</g>
<!-- \\picklesFramework2\\processors\\ssi\\ssi -->
<g id="node3" class="node">
<title>\\picklesFramework2\\processors\\ssi\\ssi</title>
<polygon fill="none" stroke="#000000" points="117.5,-928 63.5,-928 63.5,-892 117.5,-892 117.5,-928"/>
<text text-anchor="middle" x="90.5" y="-907.2" font-family="Courier,monospace" font-size="11.00" fill="#000000">ssi</text>
</g>
<!-- \\picklesFramework2\\processors\\autoindex\\autoindex -->
<g id="node4" class="node">
<title>\\picklesFramework2\\processors\\autoindex\\autoindex</title>
<polygon fill="none" stroke="#000000" points="121,-848 60,-848 60,-812 121,-812 121,-848"/>
<text text-anchor="middle" x="90.5" y="-827.2" font-family="Courier,monospace" font-size="11.00" fill="#000000">autoindex</text>
</g>
<!-- \\picklesFramework2\\processors\\md\\ext -->
<g id="node5" class="node">
<title>\\picklesFramework2\\processors\\md\\ext</title>
<polygon fill="none" stroke="#000000" points="117.5,-768 63.5,-768 63.5,-732 117.5,-732 117.5,-768"/>
<text text-anchor="middle" x="90.5" y="-747.2" font-family="Courier,monospace" font-size="11.00" fill="#000000">ext</text>
</g>
<!-- \\picklesFramework2\\commands\\clearcache -->
<g id="node6" class="node">
<title>\\picklesFramework2\\commands\\clearcache</title>
<polygon fill="none" stroke="#000000" points="123.5,-680 57.5,-680 57.5,-644 123.5,-644 123.5,-680"/>
<text text-anchor="middle" x="90.5" y="-659.2" font-family="Courier,monospace" font-size="11.00" fill="#000000">clearcache</text>
</g>
<!-- \\picklesFramework2\\commands\\publish -->
<g id="node7" class="node">
<title>\\picklesFramework2\\commands\\publish</title>
<polygon fill="none" stroke="#000000" points="117.5,-626 63.5,-626 63.5,-590 117.5,-590 117.5,-626"/>
<text text-anchor="middle" x="90.5" y="-605.2" font-family="Courier,monospace" font-size="11.00" fill="#000000">publish</text>
</g>
<!-- \\picklesFramework2\\commands\\api -->
<g id="node8" class="node">
<title>\\picklesFramework2\\commands\\api</title>
<polygon fill="none" stroke="#000000" points="117.5,-572 63.5,-572 63.5,-536 117.5,-536 117.5,-572"/>
<text text-anchor="middle" x="90.5" y="-551.2" font-family="Courier,monospace" font-size="11.00" fill="#000000">api</text>
</g>
<!-- \\picklesFramework2\\commands\\phpinfo -->
<g id="node9" class="node">
<title>\\picklesFramework2\\commands\\phpinfo</title>
<polygon fill="none" stroke="#000000" points="117.5,-518 63.5,-518 63.5,-482 117.5,-482 117.5,-518"/>
<text text-anchor="middle" x="90.5" y="-497.2" font-family="Courier,monospace" font-size="11.00" fill="#000000">phpinfo</text>
</g>
<!-- \\picklesFramework2\\commands\\config -->
<g id="node10" class="node">
<title>\\picklesFramework2\\commands\\config</title>
<polygon fill="none" stroke="#000000" points="117.5,-464 63.5,-464 63.5,-428 117.5,-428 117.5,-464"/>
<text text-anchor="middle" x="90.5" y="-443.2" font-family="Courier,monospace" font-size="11.00" fill="#000000">config</text>
</g>
<!-- \\picklesFramework2\\theme\\theme_top -->
<g id="node11" class="node">
<title>\\picklesFramework2\\theme\\theme_top</title>
<polygon fill="none" stroke="#000000" points="121,-384 60,-384 60,-348 121,-348 121,-384"/>
<text text-anchor="middle" x="90.5" y="-363.2" font-family="Courier,monospace" font-size="11.00" fill="#000000">theme_top</text>
</g>
<!-- \\picklesFramework2\\theme\\theme -->
<g id="node12" class="node">
<title>\\picklesFramework2\\theme\\theme</title>
<polygon fill="none" stroke="#000000" points="117.5,-330 63.5,-330 63.5,-294 117.5,-294 117.5,-330"/>
<text text-anchor="middle" x="90.5" y="-309.2" font-family="Courier,monospace" font-size="11.00" fill="#000000">theme</text>
</g>
<!-- \\picklesFramework2\\px -->
<g id="node13" class="node">
<title>\\picklesFramework2\\px</title>
<polygon fill="none" stroke="#000000" points="117.5,-276 63.5,-276 63.5,-240 117.5,-240 117.5,-276"/>
<text text-anchor="middle" x="90.5" y="-255.2" font-family="Courier,monospace" font-size="11.00" fill="#000000">px</text>
</g>
<!-- \\picklesFramework2\\bowl -->
<g id="node14" class="node">
<title>\\picklesFramework2\\bowl</title>
<polygon fill="none" stroke="#000000" points="117.5,-222 63.5,-222 63.5,-186 117.5,-186 117.5,-222"/>
<text text-anchor="middle" x="90.5" y="-201.2" font-family="Courier,monospace" font-size="11.00" fill="#000000">bowl</text>
</g>
<!-- \\picklesFramework2\\site -->
<g id="node15" class="node">
<title>\\picklesFramework2\\site</title>
<polygon fill="none" stroke="#000000" points="117.5,-168 63.5,-168 63.5,-132 117.5,-132 117.5,-168"/>
<text text-anchor="middle" x="90.5" y="-147.2" font-family="Courier,monospace" font-size="11.00" fill="#000000">site</text>
</g>
<!-- \\picklesFramework2\\pxcmd -->
<g id="node16" class="node">
<title>\\picklesFramework2\\pxcmd</title>
<polygon fill="none" stroke="#000000" points="117.5,-114 63.5,-114 63.5,-78 117.5,-78 117.5,-114"/>
<text text-anchor="middle" x="90.5" y="-93.2" font-family="Courier,monospace" font-size="11.00" fill="#000000">pxcmd</text>
</g>
<!-- \\picklesFramework2\\pickles -->
<g id="node17" class="node">
<title>\\picklesFramework2\\pickles</title>
<polygon fill="none" stroke="#000000" points="117.5,-60 63.5,-60 63.5,-24 117.5,-24 117.5,-60"/>
<text text-anchor="middle" x="90.5" y="-39.2" font-family="Courier,monospace" font-size="11.00" fill="#000000">pickles</text>
</g>
</g>
</svg>
