<?xml version="1.0" encoding="UTF-8" standalone="no"?>
<!DOCTYPE svg PUBLIC "-//W3C//DTD SVG 1.1//EN"
 "http://www.w3.org/Graphics/SVG/1.1/DTD/svg11.dtd">
<!-- Generated by graphviz version 2.40.1 (20161225.0304)
 -->
<!-- Title: G Pages: 1 -->
<svg width="189pt" height="1216pt"
 viewBox="0.00 0.00 189.00 1216.00" xmlns="http://www.w3.org/2000/svg" xmlns:xlink="http://www.w3.org/1999/xlink">
<g id="graph0" class="graph" transform="scale(1 1) rotate(0) translate(4 1212)">
<title>G</title>
<polygon fill="#ffffff" stroke="transparent" points="-4,4 -4,-1212 185,-1212 185,4 -4,4"/>
<g id="clust1" class="cluster">
<title>cluster_Global</title>
<path fill="none" stroke="#c0c0c0" d="M20,-8C20,-8 161,-8 161,-8 167,-8 173,-14 173,-20 173,-20 173,-1188 173,-1188 173,-1194 167,-1200 161,-1200 161,-1200 20,-1200 20,-1200 14,-1200 8,-1194 8,-1188 8,-1188 8,-20 8,-20 8,-14 14,-8 20,-8"/>
<text text-anchor="middle" x="90.5" y="-1187.2" font-family="Times,serif" font-size="11.00" fill="#c0c0c0">Global</text>
</g>
<g id="clust2" class="cluster">
<title>cluster_\picklesFramework2</title>
<path fill="none" stroke="#c0c0c0" d="M28,-16C28,-16 153,-16 153,-16 159,-16 165,-22 165,-28 165,-28 165,-1160 165,-1160 165,-1166 159,-1172 153,-1172 153,-1172 28,-1172 28,-1172 22,-1172 16,-1166 16,-1160 16,-1160 16,-28 16,-28 16,-22 22,-16 28,-16"/>
<text text-anchor="middle" x="90.5" y="-1159.2" font-family="Times,serif" font-size="11.00" fill="#c0c0c0">picklesFramework2</text>
</g>
<g id="clust4" class="cluster">
<title>cluster_\picklesFramework2\processors</title>
<path fill="none" stroke="#c0c0c0" d="M36,-716C36,-716 145,-716 145,-716 151,-716 157,-722 157,-728 157,-728 157,-1132 157,-1132 157,-1138 151,-1144 145,-1144 145,-1144 36,-1144 36,-1144 30,-1144 24,-1138 24,-1132 24,-1132 24,-728 24,-728 24,-722 30,-716 36,-716"/>
<text text-anchor="middle" x="90.5" y="-1131.2" font-family="Times,serif" font-size="11.00" fill="#c0c0c0">processors</text>
</g>
<g id="clust5" class="cluster">
<title>cluster_\picklesFramework2\processors\autoindex</title>
<path fill="none" stroke="#c0c0c0" d="M64,-1044C64,-1044 117,-1044 117,-1044 123,-1044 129,-1050 129,-1056 129,-1056 129,-1104 129,-1104 129,-1110 123,-1116 117,-1116 117,-1116 64,-1116 64,-1116 58,-1116 52,-1110 52,-1104 52,-1104 52,-1056 52,-1056 52,-1050 58,-1044 64,-1044"/>
<text text-anchor="middle" x="90.5" y="-1103.2" font-family="Times,serif" font-size="11.00" fill="#c0c0c0">autoindex</text>
</g>
<g id="clust6" class="cluster">
<title>cluster_\picklesFramework2\processors\encodingconverter</title>
<path fill="none" stroke="#c0c0c0" d="M44,-964C44,-964 137,-964 137,-964 143,-964 149,-970 149,-976 149,-976 149,-1024 149,-1024 149,-1030 143,-1036 137,-1036 137,-1036 44,-1036 44,-1036 38,-1036 32,-1030 32,-1024 32,-1024 32,-976 32,-976 32,-970 38,-964 44,-964"/>
<text text-anchor="middle" x="90.5" y="-1023.2" font-family="Times,serif" font-size="11.00" fill="#c0c0c0">encodingconverter</text>
</g>
<g id="clust7" class="cluster">
<title>cluster_\picklesFramework2\processors\md</title>
<path fill="none" stroke="#c0c0c0" d="M67.5,-884C67.5,-884 113.5,-884 113.5,-884 119.5,-884 125.5,-890 125.5,-896 125.5,-896 125.5,-944 125.5,-944 125.5,-950 119.5,-956 113.5,-956 113.5,-956 67.5,-956 67.5,-956 61.5,-956 55.5,-950 55.5,-944 55.5,-944 55.5,-896 55.5,-896 55.5,-890 61.5,-884 67.5,-884"/>
<text text-anchor="middle" x="90.5" y="-943.2" font-family="Times,serif" font-size="11.00" fill="#c0c0c0">md</text>
</g>
<g id="clust8" class="cluster">
<title>cluster_\picklesFramework2\processors\scss</title>
<path fill="none" stroke="#c0c0c0" d="M67.5,-804C67.5,-804 113.5,-804 113.5,-804 119.5,-804 125.5,-810 125.5,-816 125.5,-816 125.5,-864 125.5,-864 125.5,-870 119.5,-876 113.5,-876 113.5,-876 67.5,-876 67.5,-876 61.5,-876 55.5,-870 55.5,-864 55.5,-864 55.5,-816 55.5,-816 55.5,-810 61.5,-804 67.5,-804"/>
<text text-anchor="middle" x="90.5" y="-863.2" font-family="Times,serif" font-size="11.00" fill="#c0c0c0">scss</text>
</g>
<g id="clust9" class="cluster">
<title>cluster_\picklesFramework2\processors\ssi</title>
<path fill="none" stroke="#c0c0c0" d="M67.5,-724C67.5,-724 113.5,-724 113.5,-724 119.5,-724 125.5,-730 125.5,-736 125.5,-736 125.5,-784 125.5,-784 125.5,-790 119.5,-796 113.5,-796 113.5,-796 67.5,-796 67.5,-796 61.5,-796 55.5,-790 55.5,-784 55.5,-784 55.5,-736 55.5,-736 55.5,-730 61.5,-724 67.5,-724"/>
<text text-anchor="middle" x="90.5" y="-783.2" font-family="Times,serif" font-size="11.00" fill="#c0c0c0">ssi</text>
</g>
<g id="clust10" class="cluster">
<title>cluster_\picklesFramework2\theme</title>
<path fill="none" stroke="#c0c0c0" d="M64,-582C64,-582 117,-582 117,-582 123,-582 129,-588 129,-594 129,-594 129,-696 129,-696 129,-702 123,-708 117,-708 117,-708 64,-708 64,-708 58,-708 52,-702 52,-696 52,-696 52,-594 52,-594 52,-588 58,-582 64,-582"/>
<text text-anchor="middle" x="90.5" y="-695.2" font-family="Times,serif" font-size="11.00" fill="#c0c0c0">theme</text>
</g>
<g id="clust3" class="cluster">
<title>cluster_\picklesFramework2\commands</title>
<path fill="none" stroke="#c0c0c0" d="M61.5,-286C61.5,-286 119.5,-286 119.5,-286 125.5,-286 131.5,-292 131.5,-298 131.5,-298 131.5,-562 131.5,-562 131.5,-568 125.5,-574 119.5,-574 119.5,-574 61.5,-574 61.5,-574 55.5,-574 49.5,-568 49.5,-562 49.5,-562 49.5,-298 49.5,-298 49.5,-292 55.5,-286 61.5,-286"/>
<text text-anchor="middle" x="90.5" y="-561.2" font-family="Times,serif" font-size="11.00" fill="#c0c0c0">commands</text>
</g>
<!-- \\picklesFramework2\\commands\\api -->
<g id="node1" class="node">
<title>\\picklesFramework2\\commands\\api</title>
<polygon fill="none" stroke="#000000" points="117.5,-546 63.5,-546 63.5,-510 117.5,-510 117.5,-546"/>
<text text-anchor="middle" x="90.5" y="-525.2" font-family="Courier,monospace" font-size="11.00" fill="#000000">api</text>
</g>
<!-- \\picklesFramework2\\commands\\clearcache -->
<g id="node2" class="node">
<title>\\picklesFramework2\\commands\\clearcache</title>
<polygon fill="none" stroke="#000000" points="123.5,-492 57.5,-492 57.5,-456 123.5,-456 123.5,-492"/>
<text text-anchor="middle" x="90.5" y="-471.2" font-family="Courier,monospace" font-size="11.00" fill="#000000">clearcache</text>
</g>
<!-- \\picklesFramework2\\commands\\config -->
<g id="node3" class="node">
<title>\\picklesFramework2\\commands\\config</title>
<polygon fill="none" stroke="#000000" points="117.5,-438 63.5,-438 63.5,-402 117.5,-402 117.5,-438"/>
<text text-anchor="middle" x="90.5" y="-417.2" font-family="Courier,monospace" font-size="11.00" fill="#000000">config</text>
</g>
<!-- \\picklesFramework2\\commands\\phpinfo -->
<g id="node4" class="node">
<title>\\picklesFramework2\\commands\\phpinfo</title>
<polygon fill="none" stroke="#000000" points="117.5,-384 63.5,-384 63.5,-348 117.5,-348 117.5,-384"/>
<text text-anchor="middle" x="90.5" y="-363.2" font-family="Courier,monospace" font-size="11.00" fill="#000000">phpinfo</text>
</g>
<!-- \\picklesFramework2\\commands\\publish -->
<g id="node5" class="node">
<title>\\picklesFramework2\\commands\\publish</title>
<polygon fill="none" stroke="#000000" points="117.5,-330 63.5,-330 63.5,-294 117.5,-294 117.5,-330"/>
<text text-anchor="middle" x="90.5" y="-309.2" font-family="Courier,monospace" font-size="11.00" fill="#000000">publish</text>
</g>
<!-- \\picklesFramework2\\processors\\autoindex\\autoindex -->
<g id="node6" class="node">
<title>\\picklesFramework2\\processors\\autoindex\\autoindex</title>
<polygon fill="none" stroke="#000000" points="121,-1088 60,-1088 60,-1052 121,-1052 121,-1088"/>
<text text-anchor="middle" x="90.5" y="-1067.2" font-family="Courier,monospace" font-size="11.00" fill="#000000">autoindex</text>
</g>
<!-- \\picklesFramework2\\processors\\encodingconverter\\encodingconverter -->
<g id="node7" class="node">
<title>\\picklesFramework2\\processors\\encodingconverter\\encodingconverter</title>
<polygon fill="none" stroke="#000000" points="141,-1008 40,-1008 40,-972 141,-972 141,-1008"/>
<text text-anchor="middle" x="90.5" y="-987.2" font-family="Courier,monospace" font-size="11.00" fill="#000000">encodingconverter</text>
</g>
<!-- \\picklesFramework2\\processors\\md\\ext -->
<g id="node8" class="node">
<title>\\picklesFramework2\\processors\\md\\ext</title>
<polygon fill="none" stroke="#000000" points="117.5,-928 63.5,-928 63.5,-892 117.5,-892 117.5,-928"/>
<text text-anchor="middle" x="90.5" y="-907.2" font-family="Courier,monospace" font-size="11.00" fill="#000000">ext</text>
</g>
<!-- \\picklesFramework2\\processors\\scss\\ext -->
<g id="node9" class="node">
<title>\\picklesFramework2\\processors\\scss\\ext</title>
<polygon fill="none" stroke="#000000" points="117.5,-848 63.5,-848 63.5,-812 117.5,-812 117.5,-848"/>
<text text-anchor="middle" x="90.5" y="-827.2" font-family="Courier,monospace" font-size="11.00" fill="#000000">ext</text>
</g>
<!-- \\picklesFramework2\\processors\\ssi\\ssi -->
<g id="node10" class="node">
<title>\\picklesFramework2\\processors\\ssi\\ssi</title>
<polygon fill="none" stroke="#000000" points="117.5,-768 63.5,-768 63.5,-732 117.5,-732 117.5,-768"/>
<text text-anchor="middle" x="90.5" y="-747.2" font-family="Courier,monospace" font-size="11.00" fill="#000000">ssi</text>
</g>
<!-- \\picklesFramework2\\theme\\theme -->
<g id="node11" class="node">
<title>\\picklesFramework2\\theme\\theme</title>
<polygon fill="none" stroke="#000000" points="117.5,-680 63.5,-680 63.5,-644 117.5,-644 117.5,-680"/>
<text text-anchor="middle" x="90.5" y="-659.2" font-family="Courier,monospace" font-size="11.00" fill="#000000">theme</text>
</g>
<!-- \\picklesFramework2\\theme\\theme_top -->
<g id="node12" class="node">
<title>\\picklesFramework2\\theme\\theme_top</title>
<polygon fill="none" stroke="#000000" points="121,-626 60,-626 60,-590 121,-590 121,-626"/>
<text text-anchor="middle" x="90.5" y="-605.2" font-family="Courier,monospace" font-size="11.00" fill="#000000">theme_top</text>
</g>
<!-- \\picklesFramework2\\bowl -->
<g id="node13" class="node">
<title>\\picklesFramework2\\bowl</title>
<polygon fill="none" stroke="#000000" points="117.5,-276 63.5,-276 63.5,-240 117.5,-240 117.5,-276"/>
<text text-anchor="middle" x="90.5" y="-255.2" font-family="Courier,monospace" font-size="11.00" fill="#000000">bowl</text>
</g>
<!-- \\picklesFramework2\\pickles -->
<g id="node14" class="node">
<title>\\picklesFramework2\\pickles</title>
<polygon fill="none" stroke="#000000" points="117.5,-222 63.5,-222 63.5,-186 117.5,-186 117.5,-222"/>
<text text-anchor="middle" x="90.5" y="-201.2" font-family="Courier,monospace" font-size="11.00" fill="#000000">pickles</text>
</g>
<!-- \\picklesFramework2\\px -->
<g id="node15" class="node">
<title>\\picklesFramework2\\px</title>
<polygon fill="none" stroke="#000000" points="117.5,-168 63.5,-168 63.5,-132 117.5,-132 117.5,-168"/>
<text text-anchor="middle" x="90.5" y="-147.2" font-family="Courier,monospace" font-size="11.00" fill="#000000">px</text>
</g>
<!-- \\picklesFramework2\\pxcmd -->
<g id="node16" class="node">
<title>\\picklesFramework2\\pxcmd</title>
<polygon fill="none" stroke="#000000" points="117.5,-114 63.5,-114 63.5,-78 117.5,-78 117.5,-114"/>
<text text-anchor="middle" x="90.5" y="-93.2" font-family="Courier,monospace" font-size="11.00" fill="#000000">pxcmd</text>
</g>
<!-- \\picklesFramework2\\site -->
<g id="node17" class="node">
<title>\\picklesFramework2\\site</title>
<polygon fill="none" stroke="#000000" points="117.5,-60 63.5,-60 63.5,-24 117.5,-24 117.5,-60"/>
<text text-anchor="middle" x="90.5" y="-39.2" font-family="Courier,monospace" font-size="11.00" fill="#000000">site</text>
</g>
</g>
</svg>
