<?xml version="1.0" encoding="UTF-8" standalone="no"?>
<!DOCTYPE svg PUBLIC "-//W3C//DTD SVG 1.1//EN"
 "http://www.w3.org/Graphics/SVG/1.1/DTD/svg11.dtd">
<!-- Generated by graphviz version 2.40.1 (20161225.0304)
 -->
<!-- Title: G Pages: 1 -->
<svg width="189pt" height="1350pt"
 viewBox="0.00 0.00 189.00 1350.00" xmlns="http://www.w3.org/2000/svg" xmlns:xlink="http://www.w3.org/1999/xlink">
<g id="graph0" class="graph" transform="scale(1 1) rotate(0) translate(4 1346)">
<title>G</title>
<polygon fill="#ffffff" stroke="transparent" points="-4,4 -4,-1346 185,-1346 185,4 -4,4"/>
<g id="clust1" class="cluster">
<title>cluster_Global</title>
<path fill="none" stroke="#c0c0c0" d="M20,-8C20,-8 161,-8 161,-8 167,-8 173,-14 173,-20 173,-20 173,-1322 173,-1322 173,-1328 167,-1334 161,-1334 161,-1334 20,-1334 20,-1334 14,-1334 8,-1328 8,-1322 8,-1322 8,-20 8,-20 8,-14 14,-8 20,-8"/>
<text text-anchor="middle" x="90.5" y="-1321.2" font-family="Times,serif" font-size="11.00" fill="#c0c0c0">Global</text>
</g>
<g id="clust11" class="cluster">
<title>cluster_\tomk79</title>
<path fill="none" stroke="#c0c0c0" d="M61.5,-1180C61.5,-1180 119.5,-1180 119.5,-1180 125.5,-1180 131.5,-1186 131.5,-1192 131.5,-1192 131.5,-1294 131.5,-1294 131.5,-1300 125.5,-1306 119.5,-1306 119.5,-1306 61.5,-1306 61.5,-1306 55.5,-1306 49.5,-1300 49.5,-1294 49.5,-1294 49.5,-1192 49.5,-1192 49.5,-1186 55.5,-1180 61.5,-1180"/>
<text text-anchor="middle" x="90.5" y="-1293.2" font-family="Times,serif" font-size="11.00" fill="#c0c0c0">tomk79</text>
</g>
<g id="clust2" class="cluster">
<title>cluster_\picklesFramework2</title>
<path fill="none" stroke="#c0c0c0" d="M28,-16C28,-16 153,-16 153,-16 159,-16 165,-22 165,-28 165,-28 165,-1160 165,-1160 165,-1166 159,-1172 153,-1172 153,-1172 28,-1172 28,-1172 22,-1172 16,-1166 16,-1160 16,-1160 16,-28 16,-28 16,-22 22,-16 28,-16"/>
<text text-anchor="middle" x="90.5" y="-1159.2" font-family="Times,serif" font-size="11.00" fill="#c0c0c0">picklesFramework2</text>
</g>
<g id="clust4" class="cluster">
<title>cluster_\picklesFramework2\commands</title>
<path fill="none" stroke="#c0c0c0" d="M61.5,-856C61.5,-856 119.5,-856 119.5,-856 125.5,-856 131.5,-862 131.5,-868 131.5,-868 131.5,-1132 131.5,-1132 131.5,-1138 125.5,-1144 119.5,-1144 119.5,-1144 61.5,-1144 61.5,-1144 55.5,-1144 49.5,-1138 49.5,-1132 49.5,-1132 49.5,-868 49.5,-868 49.5,-862 55.5,-856 61.5,-856"/>
<text text-anchor="middle" x="90.5" y="-1131.2" font-family="Times,serif" font-size="11.00" fill="#c0c0c0">commands</text>
</g>
<g id="clust5" class="cluster">
<title>cluster_\picklesFramework2\processors</title>
<path fill="none" stroke="#c0c0c0" d="M36,-420C36,-420 145,-420 145,-420 151,-420 157,-426 157,-432 157,-432 157,-836 157,-836 157,-842 151,-848 145,-848 145,-848 36,-848 36,-848 30,-848 24,-842 24,-836 24,-836 24,-432 24,-432 24,-426 30,-420 36,-420"/>
<text text-anchor="middle" x="90.5" y="-835.2" font-family="Times,serif" font-size="11.00" fill="#c0c0c0">processors</text>
</g>
<g id="clust6" class="cluster">
<title>cluster_\picklesFramework2\processors\autoindex</title>
<path fill="none" stroke="#c0c0c0" d="M64,-748C64,-748 117,-748 117,-748 123,-748 129,-754 129,-760 129,-760 129,-808 129,-808 129,-814 123,-820 117,-820 117,-820 64,-820 64,-820 58,-820 52,-814 52,-808 52,-808 52,-760 52,-760 52,-754 58,-748 64,-748"/>
<text text-anchor="middle" x="90.5" y="-807.2" font-family="Times,serif" font-size="11.00" fill="#c0c0c0">autoindex</text>
</g>
<g id="clust7" class="cluster">
<title>cluster_\picklesFramework2\processors\ssi</title>
<path fill="none" stroke="#c0c0c0" d="M67.5,-668C67.5,-668 113.5,-668 113.5,-668 119.5,-668 125.5,-674 125.5,-680 125.5,-680 125.5,-728 125.5,-728 125.5,-734 119.5,-740 113.5,-740 113.5,-740 67.5,-740 67.5,-740 61.5,-740 55.5,-734 55.5,-728 55.5,-728 55.5,-680 55.5,-680 55.5,-674 61.5,-668 67.5,-668"/>
<text text-anchor="middle" x="90.5" y="-727.2" font-family="Times,serif" font-size="11.00" fill="#c0c0c0">ssi</text>
</g>
<g id="clust8" class="cluster">
<title>cluster_\picklesFramework2\processors\encodingconverter</title>
<path fill="none" stroke="#c0c0c0" d="M44,-588C44,-588 137,-588 137,-588 143,-588 149,-594 149,-600 149,-600 149,-648 149,-648 149,-654 143,-660 137,-660 137,-660 44,-660 44,-660 38,-660 32,-654 32,-648 32,-648 32,-600 32,-600 32,-594 38,-588 44,-588"/>
<text text-anchor="middle" x="90.5" y="-647.2" font-family="Times,serif" font-size="11.00" fill="#c0c0c0">encodingconverter</text>
</g>
<g id="clust9" class="cluster">
<title>cluster_\picklesFramework2\processors\scss</title>
<path fill="none" stroke="#c0c0c0" d="M67.5,-508C67.5,-508 113.5,-508 113.5,-508 119.5,-508 125.5,-514 125.5,-520 125.5,-520 125.5,-568 125.5,-568 125.5,-574 119.5,-580 113.5,-580 113.5,-580 67.5,-580 67.5,-580 61.5,-580 55.5,-574 55.5,-568 55.5,-568 55.5,-520 55.5,-520 55.5,-514 61.5,-508 67.5,-508"/>
<text text-anchor="middle" x="90.5" y="-567.2" font-family="Times,serif" font-size="11.00" fill="#c0c0c0">scss</text>
</g>
<g id="clust10" class="cluster">
<title>cluster_\picklesFramework2\processors\md</title>
<path fill="none" stroke="#c0c0c0" d="M67.5,-428C67.5,-428 113.5,-428 113.5,-428 119.5,-428 125.5,-434 125.5,-440 125.5,-440 125.5,-488 125.5,-488 125.5,-494 119.5,-500 113.5,-500 113.5,-500 67.5,-500 67.5,-500 61.5,-500 55.5,-494 55.5,-488 55.5,-488 55.5,-440 55.5,-440 55.5,-434 61.5,-428 67.5,-428"/>
<text text-anchor="middle" x="90.5" y="-487.2" font-family="Times,serif" font-size="11.00" fill="#c0c0c0">md</text>
</g>
<g id="clust3" class="cluster">
<title>cluster_\picklesFramework2\theme</title>
<path fill="none" stroke="#c0c0c0" d="M64,-286C64,-286 117,-286 117,-286 123,-286 129,-292 129,-298 129,-298 129,-400 129,-400 129,-406 123,-412 117,-412 117,-412 64,-412 64,-412 58,-412 52,-406 52,-400 52,-400 52,-298 52,-298 52,-292 58,-286 64,-286"/>
<text text-anchor="middle" x="90.5" y="-399.2" font-family="Times,serif" font-size="11.00" fill="#c0c0c0">theme</text>
</g>
<!-- \\picklesFramework2\\theme\\theme_top -->
<g id="node1" class="node">
<title>\\picklesFramework2\\theme\\theme_top</title>
<polygon fill="none" stroke="#000000" points="121,-384 60,-384 60,-348 121,-348 121,-384"/>
<text text-anchor="middle" x="90.5" y="-363.2" font-family="Courier,monospace" font-size="11.00" fill="#000000">theme_top</text>
</g>
<!-- \\picklesFramework2\\theme\\theme -->
<g id="node2" class="node">
<title>\\picklesFramework2\\theme\\theme</title>
<polygon fill="none" stroke="#000000" points="117.5,-330 63.5,-330 63.5,-294 117.5,-294 117.5,-330"/>
<text text-anchor="middle" x="90.5" y="-309.2" font-family="Courier,monospace" font-size="11.00" fill="#000000">theme</text>
</g>
<!-- \\picklesFramework2\\commands\\phpinfo -->
<g id="node3" class="node">
<title>\\picklesFramework2\\commands\\phpinfo</title>
<polygon fill="none" stroke="#000000" points="117.5,-1116 63.5,-1116 63.5,-1080 117.5,-1080 117.5,-1116"/>
<text text-anchor="middle" x="90.5" y="-1095.2" font-family="Courier,monospace" font-size="11.00" fill="#000000">phpinfo</text>
</g>
<!-- \\picklesFramework2\\commands\\config -->
<g id="node4" class="node">
<title>\\picklesFramework2\\commands\\config</title>
<polygon fill="none" stroke="#000000" points="117.5,-1062 63.5,-1062 63.5,-1026 117.5,-1026 117.5,-1062"/>
<text text-anchor="middle" x="90.5" y="-1041.2" font-family="Courier,monospace" font-size="11.00" fill="#000000">config</text>
</g>
<!-- \\picklesFramework2\\commands\\api -->
<g id="node5" class="node">
<title>\\picklesFramework2\\commands\\api</title>
<polygon fill="none" stroke="#000000" points="117.5,-1008 63.5,-1008 63.5,-972 117.5,-972 117.5,-1008"/>
<text text-anchor="middle" x="90.5" y="-987.2" font-family="Courier,monospace" font-size="11.00" fill="#000000">api</text>
</g>
<!-- \\picklesFramework2\\commands\\clearcache -->
<g id="node6" class="node">
<title>\\picklesFramework2\\commands\\clearcache</title>
<polygon fill="none" stroke="#000000" points="123.5,-954 57.5,-954 57.5,-918 123.5,-918 123.5,-954"/>
<text text-anchor="middle" x="90.5" y="-933.2" font-family="Courier,monospace" font-size="11.00" fill="#000000">clearcache</text>
</g>
<!-- \\picklesFramework2\\commands\\publish -->
<g id="node7" class="node">
<title>\\picklesFramework2\\commands\\publish</title>
<polygon fill="none" stroke="#000000" points="117.5,-900 63.5,-900 63.5,-864 117.5,-864 117.5,-900"/>
<text text-anchor="middle" x="90.5" y="-879.2" font-family="Courier,monospace" font-size="11.00" fill="#000000">publish</text>
</g>
<!-- \\picklesFramework2\\processors\\autoindex\\autoindex -->
<g id="node8" class="node">
<title>\\picklesFramework2\\processors\\autoindex\\autoindex</title>
<polygon fill="none" stroke="#000000" points="121,-792 60,-792 60,-756 121,-756 121,-792"/>
<text text-anchor="middle" x="90.5" y="-771.2" font-family="Courier,monospace" font-size="11.00" fill="#000000">autoindex</text>
</g>
<!-- \\picklesFramework2\\processors\\ssi\\ssi -->
<g id="node9" class="node">
<title>\\picklesFramework2\\processors\\ssi\\ssi</title>
<polygon fill="none" stroke="#000000" points="117.5,-712 63.5,-712 63.5,-676 117.5,-676 117.5,-712"/>
<text text-anchor="middle" x="90.5" y="-691.2" font-family="Courier,monospace" font-size="11.00" fill="#000000">ssi</text>
</g>
<!-- \\picklesFramework2\\processors\\encodingconverter\\encodingconverter -->
<g id="node10" class="node">
<title>\\picklesFramework2\\processors\\encodingconverter\\encodingconverter</title>
<polygon fill="none" stroke="#000000" points="141,-632 40,-632 40,-596 141,-596 141,-632"/>
<text text-anchor="middle" x="90.5" y="-611.2" font-family="Courier,monospace" font-size="11.00" fill="#000000">encodingconverter</text>
</g>
<!-- \\picklesFramework2\\processors\\scss\\ext -->
<g id="node11" class="node">
<title>\\picklesFramework2\\processors\\scss\\ext</title>
<polygon fill="none" stroke="#000000" points="117.5,-552 63.5,-552 63.5,-516 117.5,-516 117.5,-552"/>
<text text-anchor="middle" x="90.5" y="-531.2" font-family="Courier,monospace" font-size="11.00" fill="#000000">ext</text>
</g>
<!-- \\picklesFramework2\\processors\\md\\ext -->
<g id="node12" class="node">
<title>\\picklesFramework2\\processors\\md\\ext</title>
<polygon fill="none" stroke="#000000" points="117.5,-472 63.5,-472 63.5,-436 117.5,-436 117.5,-472"/>
<text text-anchor="middle" x="90.5" y="-451.2" font-family="Courier,monospace" font-size="11.00" fill="#000000">ext</text>
</g>
<!-- \\picklesFramework2\\pxcmd -->
<g id="node13" class="node">
<title>\\picklesFramework2\\pxcmd</title>
<polygon fill="none" stroke="#000000" points="117.5,-276 63.5,-276 63.5,-240 117.5,-240 117.5,-276"/>
<text text-anchor="middle" x="90.5" y="-255.2" font-family="Courier,monospace" font-size="11.00" fill="#000000">pxcmd</text>
</g>
<!-- \\picklesFramework2\\pickles -->
<g id="node14" class="node">
<title>\\picklesFramework2\\pickles</title>
<polygon fill="none" stroke="#000000" points="117.5,-222 63.5,-222 63.5,-186 117.5,-186 117.5,-222"/>
<text text-anchor="middle" x="90.5" y="-201.2" font-family="Courier,monospace" font-size="11.00" fill="#000000">pickles</text>
</g>
<!-- \\picklesFramework2\\site -->
<g id="node15" class="node">
<title>\\picklesFramework2\\site</title>
<polygon fill="none" stroke="#000000" points="117.5,-168 63.5,-168 63.5,-132 117.5,-132 117.5,-168"/>
<text text-anchor="middle" x="90.5" y="-147.2" font-family="Courier,monospace" font-size="11.00" fill="#000000">site</text>
</g>
<!-- \\picklesFramework2\\bowl -->
<g id="node16" class="node">
<title>\\picklesFramework2\\bowl</title>
<polygon fill="none" stroke="#000000" points="117.5,-114 63.5,-114 63.5,-78 117.5,-78 117.5,-114"/>
<text text-anchor="middle" x="90.5" y="-93.2" font-family="Courier,monospace" font-size="11.00" fill="#000000">bowl</text>
</g>
<!-- \\picklesFramework2\\px -->
<g id="node17" class="node">
<title>\\picklesFramework2\\px</title>
<polygon fill="none" stroke="#000000" points="117.5,-60 63.5,-60 63.5,-24 117.5,-24 117.5,-60"/>
<text text-anchor="middle" x="90.5" y="-39.2" font-family="Courier,monospace" font-size="11.00" fill="#000000">px</text>
</g>
<!-- \\tomk79\\filesystem -->
<g id="node18" class="node">
<title>\\tomk79\\filesystem</title>
<polygon fill="none" stroke="#000000" points="123.5,-1278 57.5,-1278 57.5,-1242 123.5,-1242 123.5,-1278"/>
<text text-anchor="middle" x="90.5" y="-1257.2" font-family="Courier,monospace" font-size="11.00" fill="#000000">filesystem</text>
</g>
<!-- \\tomk79\\request -->
<g id="node19" class="node">
<title>\\tomk79\\request</title>
<polygon fill="none" stroke="#000000" points="117.5,-1224 63.5,-1224 63.5,-1188 117.5,-1188 117.5,-1224"/>
<text text-anchor="middle" x="90.5" y="-1203.2" font-family="Courier,monospace" font-size="11.00" fill="#000000">request</text>
</g>
</g>
</svg>
