<svg version="1.1" id="theme_welcome_title" xmlns="http://www.w3.org/2000/svg" xmlns:xlink="http://www.w3.org/1999/xlink" x="0px" y="0px" viewBox="0 0 595 100" enable-background="new 0 0 595 100" xml:space="preserve">
<g>
	<g>
		<polygon fill="<?php print htmlspecialchars($colors['link']); ?>" points="15.2,27.1 21.9,27.1 32.1,53.1 42.7,24.9 52.9,53.1 63.8,27.1 70.5,27.1 52.7,69.5 42.6,41.7 32.1,69.5"/>
		<path fill="<?php print htmlspecialchars($colors['link']); ?>" d="M21.8,27.3L32,53.5l10.6-28.2l10.2,28.2l10.8-26.3h6.5L52.6,69L42.5,41.2L32,69L15.3,27.3H21.8L21.8,27.3z" />
		<path fill="<?php print htmlspecialchars($colors['link']); ?>" d="M82.1,67.4c-3.7,0-6.8-1.2-9-3.6s-3.4-5.6-3.4-9.6s1.1-7.1,3.3-9.6c2.2-2.4,5.2-3.6,8.8-3.6
			c3.7,0,6.6,1.2,8.7,3.5c2.1,2.3,3.2,5.6,3.2,9.7v1.5H75.9c0.2,1.9,0.9,3.5,1.9,4.6c1.2,1.2,2.7,1.7,4.4,1.7c1.4,0,2.6-0.3,3.4-1
			s1.9-1.9,3.1-3.7l0.1-0.1l5.1,2.9l-0.1,0.1c-0.7,1.3-1.6,2.3-2.3,3.3c-0.9,1-1.7,1.7-2.7,2.2c-1,0.6-2,1.1-3.1,1.3
			C84.6,67.2,83.3,67.4,82.1,67.4z M87.4,50.6c-0.9-2.9-2.7-4.3-5.5-4.3c-0.6,0-1.3,0.1-1.9,0.3c-0.6,0.2-1.2,0.5-1.6,0.9
			c-0.5,0.4-1,0.9-1.3,1.4c-0.3,0.5-0.5,1.1-0.7,1.7L87.4,50.6L87.4,50.6z"/>
		<path fill="<?php print htmlspecialchars($colors['link']); ?>" d="M93.4,55.5H75.7c0.1,2,0.9,3.6,2,4.9c1.2,1.2,2.7,1.8,4.5,1.8c1.4,0,2.6-0.3,3.5-1.1
			c1-0.6,1.9-1.9,3.1-3.7l4.8,2.7c-0.7,1.3-1.5,2.3-2.3,3.3c-0.9,1-1.7,1.7-2.7,2.2c-1,0.5-2,1.1-3.1,1.3c-1.1,0.2-2.3,0.4-3.6,0.4
			c-3.7,0-6.7-1.2-8.9-3.6c-2.2-2.3-3.4-5.5-3.4-9.5c0-3.9,1.1-7.1,3.3-9.5c2.2-2.3,5.1-3.6,8.7-3.6c3.6,0,6.5,1.2,8.6,3.5
			c2.1,2.3,3.2,5.5,3.2,9.6L93.4,55.5z M87.6,50.9c-0.9-3.1-2.8-4.6-5.7-4.6c-0.7,0-1.4,0.1-1.9,0.3c-0.6,0.2-1.2,0.5-1.7,1
			s-1,0.9-1.3,1.5c-0.3,0.5-0.6,1.2-0.9,1.9h11.5V50.9z"/>
		<rect x="100.7" y="23.4" fill="<?php print htmlspecialchars($colors['link']); ?>" width="6.1" height="43.3"/>
		<path fill="<?php print htmlspecialchars($colors['link']); ?>" d="M106.5,23.6v42.9h-5.7V23.6H106.5z"/>
		<path fill="<?php print htmlspecialchars($colors['link']); ?>" d="M126.1,67.4c-3.8,0-7.1-1.3-9.7-3.7c-2.6-2.6-3.9-5.6-3.9-9.4s1.4-6.9,3.9-9.5c2.7-2.6,5.8-3.8,9.7-3.8
			c2.4,0,4.8,0.6,7,1.8h0.1V51l-0.3-0.3c-1.3-1.6-2.4-2.7-3.5-3.3c-1-0.6-2.1-0.9-3.5-0.9c-2.1,0-3.8,0.7-5.2,2.2
			c-1.4,1.5-2.1,3.3-2.1,5.5s0.6,4.1,2,5.6c1.4,1.5,3.1,2.2,5.2,2.2c1.4,0,2.6-0.3,3.6-0.9c1-0.5,2.2-1.7,3.5-3.3l0.3-0.3v8.1h-0.1
			C130.7,66.8,128.4,67.4,126.1,67.4z"/>
		<path fill="<?php print htmlspecialchars($colors['link']); ?>" d="M133.1,42.9v7.7c-1.3-1.6-2.4-2.7-3.5-3.3s-2.2-1-3.6-1c-2.1,0-3.9,0.7-5.3,2.2s-2.1,3.4-2.1,5.6
			c0,2.3,0.6,4.3,2,5.7c1.4,1.5,3.2,2.2,5.3,2.2c1.4,0,2.6-0.3,3.6-0.9c1.1-0.5,2.2-1.7,3.6-3.4v7.5c-2.3,1.2-4.7,1.8-7,1.8
			c-3.8,0-7-1.3-9.6-3.7s-3.8-5.6-3.8-9.2c0-3.7,1.3-6.8,3.9-9.4c2.7-2.6,5.8-3.8,9.6-3.8C128.5,41.1,130.9,41.7,133.1,42.9z"/>
		<path fill="<?php print htmlspecialchars($colors['link']); ?>" d="M151.6,67.4c-3.7,0-6.9-1.3-9.5-3.8c-2.6-2.6-3.8-5.7-3.8-9.6c0-3.6,1.3-6.7,3.9-9.2
			c2.6-2.6,5.7-3.8,9.5-3.8c3.7,0,6.9,1.3,9.6,3.8c2.6,2.6,3.8,5.7,3.8,9.5s-1.3,6.9-3.9,9.5C158.6,66.2,155.3,67.4,151.6,67.4z
			 M151.7,46.4c-2.1,0-3.9,0.7-5.2,2.1c-1.3,1.4-2,3.3-2,5.5c0,2.4,0.6,4.4,1.9,5.7c1.3,1.4,3.1,2.1,5.2,2.1c2.2,0,3.9-0.7,5.2-2.1
			c1.3-1.4,2-3.3,2-5.6c0-2.3-0.6-4.3-2-5.6C155.6,47.1,153.8,46.4,151.7,46.4z"/>
		<path fill="<?php print htmlspecialchars($colors['link']); ?>" d="M138.4,54c0-3.6,1.3-6.6,3.8-9.1c2.6-2.6,5.6-3.7,9.4-3.7c3.7,0,6.8,1.3,9.5,3.8c2.6,2.6,3.8,5.6,3.8,9.4
			s-1.3,6.8-3.8,9.4c-2.6,2.4-5.7,3.7-9.5,3.7c-3.7,0-6.8-1.3-9.4-3.8C139.7,61,138.4,57.8,138.4,54z M144.2,54.2
			c0,2.4,0.6,4.5,2,5.8c1.4,1.5,3.2,2.2,5.3,2.2c2.2,0,4-0.7,5.3-2.1c1.4-1.5,2-3.4,2-5.7c0-2.4-0.6-4.4-2-5.7
			c-1.4-1.5-3.2-2.2-5.3-2.2c-2.2,0-3.9,0.7-5.3,2.2C145,49.9,144.2,51.8,144.2,54.2z"/>
		<path fill="<?php print htmlspecialchars($colors['link']); ?>" d="M197,66.7V52.8c0-2.3-0.3-4-0.9-5c-0.5-1-1.5-1.4-2.8-1.4c-1.5,0-2.7,0.5-3.3,1.7
			c-0.7,1.2-1.1,3.1-1.1,5.6v13h-6.1V52.9c0-4.3-1.3-6.5-3.6-6.5c-1.6,0-2.7,0.5-3.4,1.7s-1.1,3.1-1.1,5.6v13h-6.1V41.6h6.1v2
			c1-1.1,1.9-1.7,2.6-2.1c0.9-0.4,1.9-0.6,3.2-0.6c2.8,0,5,1.2,6.6,3.5c1.8-2.3,4.3-3.5,7.3-3.5c5.6,0,8.5,3.5,8.5,10.3v15.4
			L197,66.7L197,66.7z"/>
		<path fill="<?php print htmlspecialchars($colors['link']); ?>" d="M168.8,41.8h5.7v2.3c1.1-1.2,2-1.9,2.9-2.3c0.9-0.4,1.9-0.6,3.1-0.6c2.8,0,5,1.2,6.6,3.6
			c1.8-2.4,4.3-3.6,7.3-3.6c5.5,0,8.4,3.4,8.4,10.1v15.3h-5.7V52.9c0-2.3-0.3-4-0.9-5c-0.6-1-1.6-1.5-3-1.5c-1.6,0-2.8,0.6-3.4,1.8
			c-0.7,1.2-1.1,3.1-1.1,5.7v12.8H183V53c0-4.4-1.3-6.6-3.8-6.6c-1.6,0-2.8,0.6-3.5,1.8c-0.7,1.2-1.1,3.1-1.1,5.7v12.8h-5.7
			L168.8,41.8L168.8,41.8z"/>
		<path fill="<?php print htmlspecialchars($colors['link']); ?>" d="M221.1,67.4c-3.7,0-6.8-1.2-9-3.6c-2.2-2.4-3.4-5.6-3.4-9.6s1.1-7.1,3.3-9.6c2.2-2.4,5.2-3.6,8.8-3.6
			c3.7,0,6.6,1.2,8.7,3.5c2.1,2.3,3.2,5.6,3.2,9.7v1.5H215c0.2,1.9,0.9,3.5,1.9,4.6c1.2,1.2,2.7,1.7,4.4,1.7c1.4,0,2.6-0.3,3.4-1
			c0.9-0.6,1.9-1.9,3.1-3.7l0.1-0.1l5.1,2.9l-0.1,0.1c-0.7,1.3-1.6,2.3-2.3,3.3c-0.9,1-1.7,1.7-2.7,2.2c-1,0.6-2,1.1-3.1,1.3
			C223.7,67.3,222.4,67.4,221.1,67.4z M226.5,50.6c-0.9-2.9-2.7-4.3-5.5-4.3c-0.6,0-1.3,0.1-1.9,0.3c-0.6,0.2-1.2,0.5-1.6,0.9
			c-0.5,0.4-1,0.9-1.3,1.4c-0.3,0.5-0.5,1.1-0.7,1.7L226.5,50.6L226.5,50.6z"/>
		<path fill="<?php print htmlspecialchars($colors['link']); ?>" d="M232.6,55.5h-17.8c0.1,2,0.9,3.6,2,4.9c1.2,1.2,2.7,1.8,4.5,1.8c1.4,0,2.6-0.3,3.5-1.1
			c1-0.6,1.9-1.9,3.1-3.7l4.8,2.7c-0.7,1.3-1.5,2.3-2.3,3.3c-0.9,1-1.7,1.7-2.7,2.2c-1,0.5-2,1.1-3.1,1.3c-1.1,0.2-2.3,0.4-3.6,0.4
			c-3.7,0-6.7-1.2-8.9-3.6c-2.2-2.3-3.4-5.5-3.4-9.5c0-3.9,1.1-7.1,3.3-9.5c2.2-2.3,5.1-3.6,8.7-3.6c3.6,0,6.5,1.2,8.6,3.5
			c2.1,2.3,3.2,5.5,3.2,9.6L232.6,55.5z M226.7,50.9c-0.9-3.1-2.8-4.6-5.7-4.6c-0.7,0-1.4,0.1-1.9,0.3c-0.6,0.2-1.2,0.5-1.7,1
			c-0.5,0.4-1,0.9-1.3,1.5c-0.3,0.5-0.6,1.2-0.9,1.9h11.5V50.9z"/>
		<path fill="<?php print htmlspecialchars($colors['link']); ?>" d="M246,67.4c-1.1,0-1.9-0.3-2.7-1.1c-0.7-0.7-1.1-1.6-1.1-2.7c0-1,0.3-1.8,1.1-2.6c0.7-0.7,1.6-1.1,2.6-1.1
			s1.9,0.3,2.6,1.1c0.7,0.7,1.1,1.6,1.1,2.6c0,1.1-0.3,1.9-1.1,2.7C247.9,67,247,67.4,246,67.4z M243,58V27.1h6.1V58H243z"/>
		<path fill="<?php print htmlspecialchars($colors['link']); ?>" d="M242.5,63.7c0-1,0.3-1.8,1.1-2.4c0.7-0.7,1.5-1.1,2.4-1.1c1,0,1.8,0.3,2.4,1.1c0.7,0.7,1.1,1.5,1.1,2.4
			c0,1-0.3,1.8-1.1,2.6c-0.6,0.6-1.5,1.1-2.4,1.1c-1,0-1.8-0.3-2.6-1.1C242.8,65.6,242.5,64.8,242.5,63.7z M243.1,57.8V27.3h5.7
			v30.5H243.1z"/>
	</g>
	<g>
		<g>
			<g>
				<path fill="<?php print htmlspecialchars($colors['link']); ?>" d="M548.1,68.9v-4l5.1-5c12.4-11.8,18-18.1,18.1-25.4c0-4.9-2.4-9.6-9.7-9.6c-4.4,0-8.1,2.2-10.3,4.1
					l-2.1-4.7c3.3-2.9,8.1-4.9,13.8-4.9c10.4,0,14.9,7.2,14.9,14.1c0,9-6.6,16.2-16.8,26.1l-3.9,3.6v0.1h21.9v5.4h-31V68.9z"/>
			</g>
			<g>
				<path fill="<?php print htmlspecialchars($colors['link']); ?>" d="M371.2,26.4c1.3-0.4,3.1-0.6,4.3,0.1c1.4,0.8,3.1,0.6,4.6,1.3c1.4,0.9,2.2,2.1,3.2,3.4
					c1.2,1.8,1.8,4.3,1.9,6.4c0,0.9-0.1,1.8-0.2,2.7c-0.1,0.6,0,1.2-0.4,1.7c-0.2,0.2-0.2,0.3-0.4,0.6c-0.2,0.2-0.6,0.3-0.7,0.6
					c-0.2,0.4-0.2,1-0.4,1.3c-0.2,0.4-0.7,0.8-1,1.1c-0.9,0.9-1.3,2-2.7,2.4c-1.7,0.6-3.2,0.8-4.9,0.4c-1.3-0.2-3-0.8-3.6-2.2
					c-0.4-1.2-0.3-2.3,0.9-3c1.4-0.7,2.2,0.4,3.7,0.3c2.6-0.1,4.7-2.7,4.8-5.1c0.1-2.8-0.7-5.8-3.3-6.9c-2.8-1.2-5.8-0.9-7.9,1.6
					c-1,1.2-1.7,2.8-1.7,4.3c0,0.8-0.1,1.4-0.2,2.2c0,0.2,0,0.4,0,0.6c0.1,2.4,0.1,4.8,0.4,7.3c0,0.3,0,0.8,0,1.1
					c-0.1,0.7-0.6,0.8-0.7,1.3c-0.3,1,0.4,1.8,0.7,2.7c0.2,1.6-0.2,3,0.1,4.6c0.4,2.1,1.2,10-3.3,8.8c-0.8-0.2-0.9-0.6-1.1-1.1
					c-0.1-0.3-0.4-0.4-0.7-0.7c-0.1-0.2-0.1-0.8-0.1-1.1c-0.2-2.9,0-5.6-0.3-8.4c-0.2-1.3,0.3-2.4,0.4-3.8c0.1-2-0.2-4.2-0.3-6.3
					c-0.1-2.2-0.1-4.4,0-6.7c0.1-1.6,0.3-3.2,0.8-4.8c0.8-2.9,4.1-5.1,6.8-6.4C370.1,26.7,370.7,26.5,371.2,26.4z"/>
				<g>
					<path fill="<?php print htmlspecialchars($colors['link']); ?>" d="M402.7,34.9c0.6,1,0.6,2.1-0.3,3.3c-0.7,0.8-1.1,0.7-2.1,0.8c-0.1,1.1-1.6,1-2.3,0.8
						c-0.9-0.3-1.4-1.1-1.7-2c-0.6-2.2,1-5.2,3.6-4.8C401,33.1,402.1,33.9,402.7,34.9z"/>
					<path fill="<?php print htmlspecialchars($colors['link']); ?>" d="M398.8,43.4c1.8-0.4,2.8,0.7,3.1,2.2c0,0.2,0,0.4,0.1,0.7c0.1,0.6,0.1,1,0.1,1.6c0,0.3,0,0.4,0,0.8
						c-0.1,1.3,0.3,2.4,0,3.8c-0.6,2.6,0.1,5.3-0.1,7.9c-0.1,1.2,0.4,2.8-0.1,4c-1.4,3.3-4.6,1.6-5.2-1c-0.8-2.6,0.6-5.1,0.3-7.6
						c-0.1-0.8-0.4-1.3-0.6-2c-0.1-0.7,0.1-1.6,0-2.2c-0.1-1.7-0.1-3.1-0.1-4.7c0-1.3,0.6-2.7,1.9-3.2
						C398.4,43.5,398.7,43.5,398.8,43.4z"/>
				</g>
				<path fill="<?php print htmlspecialchars($colors['link']); ?>" d="M430.5,64.3c-1.3,0.9-3.2,1.6-4.8,1.3c-0.7-0.1-1.3-0.2-2-0.2c-4.1-0.1-8-2.7-9.2-6.7
					c-0.6-1.9-1.2-3.6-1.1-5.6c0-1.4,0.2-2.9,0.7-4.3c0.1-0.4,0.2-0.8,0.4-1.1c0.1-0.1,0.4-0.3,0.4-0.4c0.1-0.2,0.1-0.3,0.1-0.7
					c0.7-3.1,4.6-5,7.4-5.8c0.6-0.1,1-0.2,1.6,0c0.6,0.1,1.1,0.3,1.7,0.2c0.7-0.1,1-0.4,1.7-0.3c1.1,0.1,1.6,0.4,2.2,1.2
					c0.4,0.6,1,0.8,1.6,1.2c1.6,1,2,3.2,1.7,4.9c-0.3,1.6-2.1,2.3-3.4,1.4c-0.6-0.4-1.1-0.8-1.4-1.4c-0.3-0.6-0.6-1.1-1-1.6
					c-0.6-0.4-1.3-0.8-2-0.9c-1.4-0.2-2.9,0.1-3.9,1.2c-0.4,0.6-0.8,0.9-1.4,1.2c-0.7,0.4-0.8,1.2-1.1,2c-0.3,0.8-0.4,1.4-0.6,2.2
					c-0.1,1,0,1.9,0.3,2.9c0.4,1.3,0.9,2.7,2,3.6c0.6,0.4,1,0.2,1.6,0.6c0.7,0.4,1.1,1.1,2,1.2c0.9,0.1,2.3,0,3.2-0.2
					c1.3-0.3,2.9-2.6,4.3-1.3c1.2,1,0.9,3.7-0.2,4.6C431,64,430.8,64.2,430.5,64.3z"/>
				<path fill="<?php print htmlspecialchars($colors['link']); ?>" d="M446.4,26.4c2.1,0,3,2,3.2,3.8c0.2,2-0.9,4.1-0.8,6.1c0.1,1.1,0.1,2.2,0.1,3.3c0,1.1,0.2,2.4,0.1,3.6
					c-0.1,0.6-0.4,2.1,0,2.7c0.6,0.7,2-0.1,2.6-0.6c0.9-0.7,1.7-1.4,2.6-2.2c0.8-0.7,1.7-1.1,2.4-1.8c1-0.9,2.9-2,4.1-0.8
					c1.3,1.2,1.1,3.4-0.4,4.3c-1.9,1.1-3.3,2.7-5.1,3.8c-1.1,0.7-2.9,1.3-2.4,3c0.3,1.4,2,2.4,3,3.6c1.7,1.7,2.9,3.7,4.8,5.2
					c1,0.8,1.9,1.4,2.3,2.8c0.8,2.7-3.2,3.8-4.8,2.2c-0.7-0.7-0.6-1.4-1.1-2.1c-0.6-0.8-1.4-1.1-2.1-1.9c-0.6-0.8-1.4-1-2-1.7
					c-0.7-0.8-0.9-1.8-1.3-2.7c-0.2-0.4-2.1-2.1-2.3-0.8c-0.1,0.6,0.1,1.3,0.1,1.9c0.1,1.4,0.2,2.9,0.1,4.3c-0.1,2.6-1.1,5-4,3.8
					c-1.4-0.6-1.2-2-1-3.2c0.2-1.3-0.2-2.7-0.1-4.1c0.1-1.8,0.2-3.6,0.3-5.3c0.1-1.2-0.3-2.6-0.4-3.8c-0.1-1.1,0.3-2.1,0.3-3.3
					c0-1.7-0.4-3.3-0.4-5c0.1-1.4,0.3-2.9,0.3-4.3c0.1-1.7-0.2-3.4-0.4-5.1c-0.2-1.3-0.2-2.9,0.2-4.1
					C444.4,26.7,445.4,26.4,446.4,26.4z"/>
				<path fill="<?php print htmlspecialchars($colors['link']); ?>" d="M479.5,41.2c0,0.4-0.1,1-0.1,1.4c0,1.8,0.1,3.1,0,4.8c-0.2,1.7,0.1,3.3,0.1,4.9c0.1,2.8-0.2,5.6,0.1,8.3
					c0.2,1.6-0.1,4.4-1.9,5.1c-1.4,0.6-3-0.8-3.2-2.1c-0.1-0.9,0.2-1.9,0.1-2.9c-0.1-1.6-0.4-3-0.3-4.6c0-1.2,0.1-2.3,0.2-3.6
					c0.2-2.6,0-5.1-0.1-7.7c-0.1-2.2,0.6-4.1,0.3-6.3c-0.2-2.2-0.1-4.6-0.4-6.8c-0.2-1.3-0.3-2.8,0.6-3.8c1.6-1.9,4.3-0.9,4.9,1.2
					c0.6,2,0.2,3.9-0.1,5.9c-0.3,1.7-0.4,3.2-0.1,5C479.5,40.5,479.5,40.9,479.5,41.2z"/>
				<path fill="<?php print htmlspecialchars($colors['link']); ?>" d="M507.2,59.2c-0.9-0.1-2,0.2-3,0.8c-1.2,0.7-2.8,1.3-4.1,1c-0.6-0.2-1.6-0.1-2.1-0.4
					c-0.2-0.1-0.4-0.4-0.6-0.6c-0.3-0.3-0.9-0.4-1.2-0.7c-0.4-0.3-0.6-0.8-0.8-1.1c-0.3-0.6-1.2-2.9-0.6-3.4
					c0.6-0.4,1.7,0.2,2.3,0.3c1.8,0.2,3.4-0.2,5.2-0.2c0.8,0,1.3,0.1,2.1-0.1c0.7-0.2,1.2-0.1,1.8-0.7c0.4-0.4,1.1-0.2,1.6-0.6
					c0.4-0.3,0.3-0.8,0.6-1.2c0.2-0.3,0.4-0.4,0.7-0.7c0.7-0.8,0.4-1.8,0.4-2.7c-0.1-2.7-1.2-5.2-3.3-6.9c-0.3-0.2-0.7-0.4-1-0.7
					c-0.9-0.6-1.9-1.1-3-1.2c-2.2-0.2-4.4,0.6-6.6,1.2c-2.6,0.8-4,3.8-5,6c-0.6,1.3-0.9,3.2-1,4.7c-0.1,0.9,0.3,1.7,0.3,2.6
					c0,0.4,0,0.6,0.2,1c0.2,0.3,0.3,0.7,0.3,1.1c-0.1,0.9,0.1,2,0.4,2.9c0.3,1,1.3,1.6,1.9,2.4c0.3,0.4,0.4,1,0.9,1.3
					c0.3,0.2,0.7,0.3,1,0.4c0.4,0.2,0.8,0.8,1.3,0.8c0.7,0.1,1,0.3,1.7,0.6c0.6,0.2,1.1,0.2,1.6,0.4c0.6,0.2,1.1,0.3,1.8,0.2
					c0.4-0.1,0.9-0.2,1.3-0.2c0.6,0,1.1,0.1,1.7-0.1c0.6-0.2,1.2-0.6,1.8-0.7c0.6-0.2,0.8-0.4,1.2-0.9c0.9-0.7,1.9-0.9,2-2.1
					C509,60.6,508.4,59.3,507.2,59.2z M495.1,47.5c0.1-0.3,0.3-0.7,0.4-0.9c0.1-0.3,0.4-0.4,0.7-0.7c0.2-0.2,0.6-0.6,0.8-0.8
					c0.2-0.2,0.3-0.3,0.7-0.4c0.2-0.1,0.6-0.2,0.8-0.4c0.4-0.2,0.8-0.2,1.3-0.2c0.8,0,1.3-0.2,2.1,0c1.2,0.3,2.3,1,2.9,2.2
					c0.4,1.1,1.1,2.7,0.1,3.7c-0.8,0.8-2.8,0.9-3.9,1c-1.1,0.1-2.2,0.1-3.2,0c-0.6,0-1.1-0.2-1.6-0.2c-0.3,0-0.8,0.1-1.1-0.1
					C494,50.2,494.8,48.3,495.1,47.5z"/>
				<path fill="<?php print htmlspecialchars($colors['link']); ?>" d="M531.4,41.5c0.1,0.1,0.3,0.2,0.4,0.4c0.8,1,2.1,2.6,1.6,3.9c-0.2,0.6-1.4,1.1-2.1,1.3
					c-1,0.2-2-0.7-2.8-1.2c-1.2-1-2.6-1.9-4.1-1.3c-1.3,0.3-2.2,1.6-2.3,2.9c-0.1,1.2,1,1.9,1.9,2.6c1.1,0.9,2.4,1.2,3.9,1.7
					c1.9,0.7,4,1.6,5.2,3.2c0.8,0.9,1,2,0.9,3.2c0,1.3-0.3,2.3-0.7,3.6c-0.3,1.4-1.8,2.8-3.1,3.4c-1.4,0.7-3.1,1-4.7,1
					c-0.8,0-1.6-0.3-2.3-0.4c-0.9-0.1-1.8-0.3-2.4-0.8c-1.4-0.9-2.9-2.3-3.4-4c-0.3-1.1-0.2-2.3,0.7-3.2c1.1-1.2,2.6-0.7,3.6,0.4
					c0.4,0.4,0.6,1,0.8,1.4c0.3,0.6,1.1,0.6,1.6,1c0.4,0.3,0.7,0.8,1.2,0.9c0.4,0.1,1,0,1.4,0c1.1,0,2.3-0.2,2.8-1.2
					c0.6-1.2,0.4-3.3-0.8-4.2c-1.8-1.2-4-1.3-5.9-2.4c-0.8-0.4-1.7-0.4-2.2-1.1c-0.6-0.6-1.3-1.2-1.7-1.9c-0.7-1.2-1.2-2.2-1-3.7
					c0.1-1.3,0.6-2.7,1.3-3.8c0.2-0.3,0.4-0.9,0.9-1.1c0.3-0.1,0.8-0.1,1.1-0.2c0.4-0.1,0.7-0.3,1-0.6c0.6-0.4,0.9-0.6,1.6-0.8
					c0.8-0.2,1.8-0.4,2.7-0.4c0.9,0.1,1.7,0.7,2.7,0.7C529.9,41,530.8,41,531.4,41.5z"/>
			</g>
		</g>
		<g>
			<g>
				<g>
					<path fill="<?php print htmlspecialchars($colors['link']); ?>" d="M342,36.1c-0.1-1.4-0.3-2.7-0.3-4.1c0-1.3,0-2.7-0.6-4c-0.8-1.8-0.8-3.9-1.8-5.7
						c-0.8-1.6-2.3-2.9-3.3-4.3c-0.6-0.7-1.1-1.3-1.6-2.1c-0.4-0.7-1-0.8-1.6-1.2c-0.8-0.7-1.4-1.6-2.1-2.2
						c-0.7-0.7-1.6-0.4-2.2-0.9c-0.4-0.3-0.6-0.7-1.1-1c-0.7-0.3-1.3-0.6-2.1-0.7c-0.7-0.1-1.4,0-2-0.4c-1.6-1.2-3.3-1-5.2-1.2
						c-1.3-0.1-4.3-1.1-5.8-1.1C311,7,309.5,6.9,308.1,7c-0.4,0.1-0.9,0.2-1.3,0.3c-0.7,0.1-1.2-0.1-1.9-0.1c-0.7,0-1.6,0.2-2.2,0.4
						c-1.7,0.4-3.2,1-4.8,1.7c-0.8,0.3-1.7,0.4-2.4,0.8c-0.9,0.3-1.6,0.8-2.4,1.1c-0.9,0.3-1.4,0.9-2.2,1.4s-1.8,1-2.6,1.7
						c-1,0.9-1.9,1.8-2.7,2.8c-0.4,0.4-1,0.9-1.3,1.4c-0.2,0.6-0.1,1.1-0.6,1.6c-0.2,0.3-0.7,0.4-0.9,0.8c-0.3,0.4-0.3,1-0.6,1.4
						c-0.3,0.4-0.4,1-0.8,1.4c-0.8,1.3-1,2.2-1.2,3.7c-0.2,1.2-1.2,2.3-1.4,3.6c-0.2,1.2,0.2,2.3-0.1,3.7c-0.4,1.7-0.9,3.3-1,5.1
						c-0.1,1.6,0.2,3,0.1,4.6c-0.2,1.8,0.3,3.6,0.6,5.3c0.6,4.9,2.1,9.6,2.6,14.3c0,0.4-0.1,0.8,0,1.2c0.2,1,0.9,1.4,0.6,2.4
						c-0.2,1,0.2,1.4,0.4,2.4c0.1,0.3,0,0.4,0,0.9c-0.1,1.1,0.4,2.3,0.7,3.3c0.3,1.3,0.4,2.7,0.6,4c0.1,1.8,1.1,3.1,1.7,4.7
						c0.4,1.6,0.4,3.1,1.4,4.4c0.9,1.2,2.4,2,3.9,2.2c1.3,0.1,3.3,0.3,4.7,0s2.2-1,3.2-1.9c0.7-0.7,1-1.6,1.3-2.3
						c1-2.1,0.1-4.1,0.7-6.3c0.2-0.8,0.6-1.6,0.7-2.3c0.1-0.6-0.2-1.1-0.1-1.7c0-0.7,0.3-1.1,0.6-1.7c0.1-0.4,0-1-0.1-1.6
						c0-0.8-0.2-1.8-0.1-2.6c0.2-1.1,1-2.3,1.9-2.9c0.7-0.4,0.9-0.3,1.7-0.3c1.6,0,3.1-0.2,4.7-0.3c1.4-0.1,2.8,0.3,4.2,0.1
						c3-0.3,8.6,0,11.2-1.6c0.8-0.4,1.1-1.4,1.7-1.8c0.6-0.2,1.8,0,2.3-0.1c1.9-0.4,2.7-2.3,4-3.7c1.8-1.7,3.4-3.6,5-5.2
						c0.1-0.1,0.1-0.1,0.2-0.2c0.1-0.1,0.2-0.3,0.2-0.6c0.1-0.1,0.2-0.2,0.2-0.4c0.6-1.7,2.1-2.9,2.2-4.8c0-0.9,0.2-1.9,0.3-2.8
						C341.5,42,342.1,39.1,342,36.1z M336.1,43.7c-0.4,1.1,0.2,2.4-0.2,3.7c-0.1,0.3-0.7,0.7-0.9,1c-0.2,0.3-0.1,0.9-0.2,1.3
						c-0.8,1.9-2.6,3.7-4,5c-1.6,1.3-2.9,2.9-4.8,3.7c-0.7,0.2-1.4,0.3-2.1,0.7c-0.9,0.4-1.8,0.6-2.7,0.8c-1.9,0.6-4.8,0.3-6.7,0.7
						c-0.4,0.1-0.8,0.1-1.2,0.1c-0.3,0-0.8,0.1-1.1,0.1c-0.1,0-0.2-0.1-0.3-0.1c-1.2,0-2.6,0-3.8,0c-1.4,0-2.9-0.1-4.4,0
						c-0.8,0.1-1.2,0.4-2,0.9c-0.6,0.3-1.2,0.2-1.8,0.6c-0.6,0.3-1.1,0.7-1.6,1.1c-0.9,0.8-1.7,1.7-1.9,2.9
						c-0.2,0.9-0.2,1.9-0.4,2.8c-0.2,0.9-0.3,1.8-0.3,2.7c0.1,0.8,0.3,1.7,0.4,2.4c0.1,0.7,0.1,1.3,0,2c-0.1,0.9-0.4,1.4-0.3,2.3
						c0.2,1.6,0.1,6.6-2.1,6.8c-0.6,0-1.2-0.1-1.8-0.1s-1.1,0-1.7-0.1c-1-0.2-0.9-0.6-1-1.4c-0.1-0.4-0.3-0.7-0.4-1
						c-0.1-0.3,0-0.7-0.1-1c0-0.1-0.1-0.3-0.1-0.4c-0.2-1-0.1-1.1,1.1-1.2c1-0.1,2.4-0.2,2.9-1.2c0.2-0.4,0.2-1.2-0.2-1.6
						c-0.3-0.3-1.2-0.4-1.8-0.4c-0.9,0-2.6,0.3-3-0.6c-0.3-0.9-0.4-1.9,0.3-2.6c0.6-0.4,1.3-0.3,2.1-0.4c0.7,0,1.3-0.1,1.8-0.7
						c0.4-0.4,0.1-1.7-0.1-2.2c-0.3-0.6-0.8-0.7-1.3-0.8c-1.1-0.1-2.6,0.3-3.6-0.6c-0.7-0.6-0.8-1.7-0.1-2.3
						c0.4-0.4,1.2-0.6,1.9-0.7c1.2-0.2,3-0.2,3.1-1.8c0.1-1.8-1.1-2.6-2.7-2.6c-1,0-2.1,0.1-3.1-0.4c-0.7-0.3-0.8-0.8-0.9-1.4
						c-0.1-0.9-0.2-1.9-0.6-2.8c-0.2-0.9-0.3-1.8-0.4-2.8c-0.3-1.9-0.4-3.9-0.7-5.9c-0.1-0.9-0.1-1.6-0.4-2.3
						c-0.7-1.7-0.1-3.3-0.2-5.1c0-1.8,0.4-3,0.7-4.7c0.2-1.1-0.2-2.6,0.1-3.6c0.1-0.4,0.6-0.8,0.8-1.1c0.3-0.4,0.3-0.9,0.4-1.3
						c0.3-1.1,1.1-2,1.3-3.1c0.1-0.7-0.1-1.4,0.2-2.1c0.2-0.6,0.8-1.2,1.2-1.8c0.9-1.3,1.9-2.4,3.1-3.6c0.9-0.8,1.9-1.8,3-2.3
						c1.1-0.6,2.1-1.4,3.2-1.9c0.8-0.3,1.3-0.1,1.9-0.2c0.6,0,1-0.6,1.3-0.9c0.7-0.6,1.1-0.4,1.9-0.6c1.3-0.2,1.7-1.7,3.2-1.4
						c1.3,0.1,2.3,0.3,3.6,0.1c1.4-0.2,3-0.1,4.3-0.1c2.7,0,7,1.1,9.4,2.2c0.9,0.4,1.9,0.9,2.8,1.3c1.3,0.7,2.8,1.6,4,2.4
						c1.8,1.2,2.8,2.7,4,4.4c0.7,0.9,1.4,1.8,2,2.8c0.6,0.9,1,2,1.4,2.9c0.3,0.7,0.4,1.3,0.4,2.1c0,2,0.2,4.1,0.6,6.1
						C337.9,38.7,336.9,41.6,336.1,43.7z M314.1,29.3c-0.4,0.9-0.4,1.9,0.2,2.8c1,1.2,3.1,1.9,4.3,0.7c1-1,0.9-2.7,0.1-3.9
						C317.7,27.4,315.3,27,314.1,29.3z M303.1,28c-0.2-0.1-0.4-0.1-0.8-0.1c-1,0-2.2,0.4-2.6,1.3c-0.4,1.2-0.2,2.7,0.8,3.6
						c1.1,1,3.8,0.8,4.2-0.8C305.2,30.7,304.7,28.4,303.1,28z"/>
				</g>
			</g>
			<g>
				<path fill="<?php print htmlspecialchars($colors['link']); ?>" d="M327.6,89.4c-0.3,0-0.7,0-1-0.1c-1.3-0.3-2.4-1.2-3.4-2c-0.2-0.1-0.3-0.4-0.4-0.6
					c-0.4-0.6-1.3-1.4-2.1-1.6h-0.1c-0.3,0-0.7,0.3-0.8,0.6c-0.2,0.3-0.6,0.6-0.8,0.8c-0.2,0.2-0.6,0.3-0.7,0.7
					c-0.1,0.2-0.2,0.2-0.3,0.4c-1,0.9-1.7,2.1-3.1,2c-1.3-0.1-2.4-0.3-3.3-1.3c-1-1.2-2.4-2.2-2.1-4.1c0.2-1.3,1.3-2.3,2.1-3.3
					c0.4-0.6,1.1-0.9,1.7-1.4l0,0c0.4-0.3,0.4-0.3,0.1-0.8c-0.2-0.3-0.6-0.6-0.9-0.9c-0.2-0.1-0.3-0.3-0.4-0.4
					c-1.2-1.2-2.1-1.7-2.7-3.3c-0.4-1.7,0.2-3,1.6-4c0.3-0.2,0.7-0.4,0.9-0.7c0,0,0-0.1,0.1-0.2c1-0.8,2.2-1.2,3.4-0.8
					c1.3,0.4,2.3,2,3.4,2.9c0.3,0.2,0.7,0.6,1,0.8c0.2,0.2,0.4,0.6,0.9,0.7c0.4,0,0.8-0.6,1-0.9c0.4-0.4,0.8-0.8,1.2-1.2
					c0.1-0.1,0.1-0.2,0.2-0.3c0.1-0.1,0.2-0.2,0.3-0.2c0.3-0.2,0.6-0.4,0.8-0.8c0.8-0.9,2.2-1.7,3.3-1.1c0.4,0.2,1,0.6,1.3,0.9
					c0.3,0.3,0.4,0.7,0.8,0.9c0.3,0.3,0.7,0.7,1,1c0.3,0.3,0.7,0.7,0.8,1.1c0.2,0.7,0.3,1.9,0,2.4s-1.2,1-1.8,1.4
					c-0.3,0.3-0.4,0.6-0.7,0.9c0,0-0.3,0.3-0.3,0.4c-0.6,0.6-1.7,1.3-0.8,2.1c0.4,0.3,0.8,0.8,1.2,1.1c0.2,0.2,0.6,0.3,0.8,0.6
					c1,0.9,2.1,2,2.2,3.3c0.1,1.1-0.7,1.4-1.2,2.1C329.6,87.7,329,89.3,327.6,89.4z M314.5,72.4c-0.1,0-0.1,0-0.2,0
					c-0.9,0.2-1.6,1.4-1,2.2c0.3,0.4,1,0.7,1.3,1c0.4,0.4,0.8,1,1.1,1.6c0.7,1.1,1.7,1.4,0.9,2.7c-0.8,1.4-2.2,2.3-3.2,3.6
					c-0.7,0.8-0.8,1.8,0.2,2.2c1.3,0.7,2-0.9,2.8-1.7c0.6-0.4,1-1,1.6-1.4c0.4-0.3,0.7-0.8,1-1.1c0.9-1,2-0.4,2.8,0.4
					c0.4,0.4,1,0.9,1.4,1.3c0.4,0.4,1,0.7,1.4,1.1c0.7,0.6,1.4,1.7,2.3,1.1c0.6-0.3,1-1.3,0.4-1.8c-0.1-0.1-0.7-0.6-0.8-0.7v-0.1
					c0,0-0.1,0-0.1-0.1c0,0,0-0.1-0.1-0.1c0,0-0.1,0-0.1-0.1c-0.6-0.6-1.2-1.2-1.9-1.7c-0.7-0.6-1.7-1.1-1.8-2
					c0-0.2,0.1-0.6,0.2-0.7c0.3-0.6,1.1-1,1.7-1.4c0.8-0.7,1.4-1.2,2-2c0.2-0.4,0.6-0.6,0.7-1.1c0-0.2,0.2-0.6,0-0.8
					c-0.1-0.1-0.3-0.2-0.4-0.3c-0.2-0.2-0.2-0.4-0.4-0.6c-0.2-0.2-0.4-0.1-0.7,0c-0.3,0.2-0.7,0.4-1,0.8c-0.3,0.3-0.6,0.7-1,1
					c-0.4,0.3-0.9,0.7-1.2,1.1c-0.6,0.6-1.6,2.2-2.6,1.6c-0.3-0.2-0.6-0.4-0.8-0.7C317.9,75.2,316.2,72.3,314.5,72.4z"/>
			</g>
		</g>
	</g>
</g>
</svg>
