<svg version="1.1" id="theme_welcome_title" xmlns="http://www.w3.org/2000/svg" xmlns:xlink="http://www.w3.org/1999/xlink"
	 x="0px" y="0px" viewBox="0 0 595 100" enable-background="new 0 0 595 100" xml:space="preserve">
<g>
	<g>
		<polygon fill="#0000ff" points="17.2,29.4 23.9,29.4 34.1,55.4 44.7,27.2 54.9,55.4 65.8,29.4 72.5,29.4 54.7,71.8 44.6,44
			34.1,71.8 		"/>
		<path fill="#0000ff" d="M23.8,29.6L34,55.8l10.6-28.2l10.2,28.2l10.8-26.3h6.5L54.6,71.3L44.5,43.5L34,71.3L17.3,29.6H23.8
			L23.8,29.6z"/>
		<path fill="#0000ff" d="M84.1,69.7c-3.7,0-6.8-1.2-9-3.6s-3.4-5.6-3.4-9.6s1.1-7.1,3.3-9.6c2.2-2.4,5.2-3.6,8.8-3.6
			c3.7,0,6.6,1.2,8.7,3.5s3.2,5.6,3.2,9.7V58H77.9c0.2,1.9,0.9,3.5,1.9,4.6c1.2,1.2,2.7,1.7,4.4,1.7c1.4,0,2.6-0.3,3.4-1
			s1.9-1.9,3.1-3.7l0.1-0.1l5.1,2.9l-0.1,0.1c-0.7,1.3-1.6,2.3-2.3,3.3c-0.9,1-1.7,1.7-2.7,2.2c-1,0.6-2,1.1-3.1,1.3
			C86.6,69.5,85.3,69.7,84.1,69.7z M89.4,52.9c-0.9-2.9-2.7-4.3-5.5-4.3c-0.6,0-1.3,0.1-1.9,0.3s-1.2,0.5-1.6,0.9
			c-0.5,0.4-1,0.9-1.3,1.4s-0.5,1.1-0.7,1.7L89.4,52.9L89.4,52.9z"/>
		<path fill="#0000ff" d="M95.4,57.8H77.7c0.1,2,0.9,3.6,2,4.9c1.2,1.2,2.7,1.8,4.5,1.8c1.4,0,2.6-0.3,3.5-1.1
			c1-0.6,1.9-1.9,3.1-3.7l4.8,2.7c-0.7,1.3-1.5,2.3-2.3,3.3c-0.9,1-1.7,1.7-2.7,2.2s-2,1.1-3.1,1.3c-1.1,0.2-2.3,0.4-3.6,0.4
			c-3.7,0-6.7-1.2-8.9-3.6c-2.2-2.3-3.4-5.5-3.4-9.5c0-3.9,1.1-7.1,3.3-9.5c2.2-2.3,5.1-3.6,8.7-3.6s6.5,1.2,8.6,3.5
			s3.2,5.5,3.2,9.6L95.4,57.8z M89.6,53.2c-0.9-3.1-2.8-4.6-5.7-4.6c-0.7,0-1.4,0.1-1.9,0.3c-0.6,0.2-1.2,0.5-1.7,1s-1,0.9-1.3,1.5
			c-0.3,0.5-0.6,1.2-0.9,1.9h11.5V53.2z"/>
		<rect x="102.7" y="25.7" fill="#0000ff" width="6.1" height="43.3"/>
		<path fill="#0000ff" d="M108.5,25.9v42.9h-5.7V25.9H108.5z"/>
		<path fill="#0000ff" d="M128.1,69.7c-3.8,0-7.1-1.3-9.7-3.7c-2.6-2.6-3.9-5.6-3.9-9.4s1.4-6.9,3.9-9.5c2.7-2.6,5.8-3.8,9.7-3.8
			c2.4,0,4.8,0.6,7,1.8h0.1v8.2l-0.3-0.3c-1.3-1.6-2.4-2.7-3.5-3.3c-1-0.6-2.1-0.9-3.5-0.9c-2.1,0-3.8,0.7-5.2,2.2
			c-1.4,1.5-2.1,3.3-2.1,5.5s0.6,4.1,2,5.6s3.1,2.2,5.2,2.2c1.4,0,2.6-0.3,3.6-0.9c1-0.5,2.2-1.7,3.5-3.3l0.3-0.3v8.1h-0.1
			C132.7,69.1,130.4,69.7,128.1,69.7z"/>
		<path fill="#0000ff" d="M135.1,45.2v7.7c-1.3-1.6-2.4-2.7-3.5-3.3s-2.2-1-3.6-1c-2.1,0-3.9,0.7-5.3,2.2s-2.1,3.4-2.1,5.6
			c0,2.3,0.6,4.3,2,5.7c1.4,1.5,3.2,2.2,5.3,2.2c1.4,0,2.6-0.3,3.6-0.9c1.1-0.5,2.2-1.7,3.6-3.4v7.5c-2.3,1.2-4.7,1.8-7,1.8
			c-3.8,0-7-1.3-9.6-3.7c-2.6-2.4-3.8-5.6-3.8-9.2c0-3.7,1.3-6.8,3.9-9.4c2.7-2.6,5.8-3.8,9.6-3.8C130.5,43.4,132.9,44,135.1,45.2z"
			/>
		<path fill="#0000ff" d="M153.6,69.7c-3.7,0-6.9-1.3-9.5-3.8c-2.6-2.6-3.8-5.7-3.8-9.6c0-3.6,1.3-6.7,3.9-9.2
			c2.6-2.6,5.7-3.8,9.5-3.8c3.7,0,6.9,1.3,9.6,3.8c2.6,2.6,3.8,5.7,3.8,9.5s-1.3,6.9-3.9,9.5C160.6,68.5,157.3,69.7,153.6,69.7z
			 M153.7,48.7c-2.1,0-3.9,0.7-5.2,2.1c-1.3,1.4-2,3.3-2,5.5c0,2.4,0.6,4.4,1.9,5.7c1.3,1.4,3.1,2.1,5.2,2.1c2.2,0,3.9-0.7,5.2-2.1
			c1.3-1.4,2-3.3,2-5.6s-0.6-4.3-2-5.6C157.6,49.4,155.8,48.7,153.7,48.7z"/>
		<path fill="#0000ff" d="M140.4,56.3c0-3.6,1.3-6.6,3.8-9.1c2.6-2.6,5.6-3.7,9.4-3.7c3.7,0,6.8,1.3,9.5,3.8
			c2.6,2.6,3.8,5.6,3.8,9.4s-1.3,6.8-3.8,9.4c-2.6,2.4-5.7,3.7-9.5,3.7c-3.7,0-6.8-1.3-9.4-3.8C141.7,63.3,140.4,60.1,140.4,56.3z
			 M146.2,56.5c0,2.4,0.6,4.5,2,5.8c1.4,1.5,3.2,2.2,5.3,2.2c2.2,0,4-0.7,5.3-2.1c1.4-1.5,2-3.4,2-5.7c0-2.4-0.6-4.4-2-5.7
			c-1.4-1.5-3.2-2.2-5.3-2.2c-2.2,0-3.9,0.7-5.3,2.2C147,52.2,146.2,54.1,146.2,56.5z"/>
		<path fill="#0000ff" d="M199,69V55.1c0-2.3-0.3-4-0.9-5c-0.5-1-1.5-1.4-2.8-1.4c-1.5,0-2.7,0.5-3.3,1.7c-0.7,1.2-1.1,3.1-1.1,5.6
			v13h-6.1V55.2c0-4.3-1.3-6.5-3.6-6.5c-1.6,0-2.7,0.5-3.4,1.7s-1.1,3.1-1.1,5.6v13h-6.1V43.9h6.1v2c1-1.1,1.9-1.7,2.6-2.1
			c0.9-0.4,1.9-0.6,3.2-0.6c2.8,0,5,1.2,6.6,3.5c1.8-2.3,4.3-3.5,7.3-3.5c5.6,0,8.5,3.5,8.5,10.3v15.4L199,69L199,69z"/>
		<path fill="#0000ff" d="M170.8,44.1h5.7v2.3c1.1-1.2,2-1.9,2.9-2.3c0.9-0.4,1.9-0.6,3.1-0.6c2.8,0,5,1.2,6.6,3.6
			c1.8-2.4,4.3-3.6,7.3-3.6c5.5,0,8.4,3.4,8.4,10.1v15.3h-5.7V55.2c0-2.3-0.3-4-0.9-5c-0.6-1-1.6-1.5-3-1.5c-1.6,0-2.8,0.6-3.4,1.8
			c-0.7,1.2-1.1,3.1-1.1,5.7V69H185V55.3c0-4.4-1.3-6.6-3.8-6.6c-1.6,0-2.8,0.6-3.5,1.8s-1.1,3.1-1.1,5.7V69h-5.7L170.8,44.1
			L170.8,44.1z"/>
		<path fill="#0000ff" d="M223.1,69.7c-3.7,0-6.8-1.2-9-3.6s-3.4-5.6-3.4-9.6s1.1-7.1,3.3-9.6c2.2-2.4,5.2-3.6,8.8-3.6
			c3.7,0,6.6,1.2,8.7,3.5c2.1,2.3,3.2,5.6,3.2,9.7V58H217c0.2,1.9,0.9,3.5,1.9,4.6c1.2,1.2,2.7,1.7,4.4,1.7c1.4,0,2.6-0.3,3.4-1
			c0.9-0.6,1.9-1.9,3.1-3.7l0.1-0.1l5.1,2.9l-0.1,0.1c-0.7,1.3-1.6,2.3-2.3,3.3c-0.9,1-1.7,1.7-2.7,2.2c-1,0.6-2,1.1-3.1,1.3
			C225.7,69.6,224.4,69.7,223.1,69.7z M228.5,52.9c-0.9-2.9-2.7-4.3-5.5-4.3c-0.6,0-1.3,0.1-1.9,0.3c-0.6,0.2-1.2,0.5-1.6,0.9
			c-0.5,0.4-1,0.9-1.3,1.4s-0.5,1.1-0.7,1.7L228.5,52.9L228.5,52.9z"/>
		<path fill="#0000ff" d="M234.6,57.8h-17.8c0.1,2,0.9,3.6,2,4.9c1.2,1.2,2.7,1.8,4.5,1.8c1.4,0,2.6-0.3,3.5-1.1
			c1-0.6,1.9-1.9,3.1-3.7l4.8,2.7c-0.7,1.3-1.5,2.3-2.3,3.3c-0.9,1-1.7,1.7-2.7,2.2s-2,1.1-3.1,1.3c-1.1,0.2-2.3,0.4-3.6,0.4
			c-3.7,0-6.7-1.2-8.9-3.6c-2.2-2.3-3.4-5.5-3.4-9.5c0-3.9,1.1-7.1,3.3-9.5c2.2-2.3,5.1-3.6,8.7-3.6c3.6,0,6.5,1.2,8.6,3.5
			s3.2,5.5,3.2,9.6L234.6,57.8z M228.7,53.2c-0.9-3.1-2.8-4.6-5.7-4.6c-0.7,0-1.4,0.1-1.9,0.3c-0.6,0.2-1.2,0.5-1.7,1
			c-0.5,0.4-1,0.9-1.3,1.5c-0.3,0.5-0.6,1.2-0.9,1.9h11.5L228.7,53.2L228.7,53.2z"/>
		<path fill="#0000ff" d="M248,69.7c-1.1,0-1.9-0.3-2.7-1.1c-0.7-0.7-1.1-1.6-1.1-2.7c0-1,0.3-1.8,1.1-2.6c0.7-0.7,1.6-1.1,2.6-1.1
			s1.9,0.3,2.6,1.1c0.7,0.7,1.1,1.6,1.1,2.6c0,1.1-0.3,1.9-1.1,2.7C249.9,69.3,249,69.7,248,69.7z M245,60.3V29.4h6.1v30.9H245z"/>
		<path fill="#0000ff" d="M244.5,66c0-1,0.3-1.8,1.1-2.4c0.7-0.7,1.5-1.1,2.4-1.1c1,0,1.8,0.3,2.4,1.1c0.7,0.7,1.1,1.5,1.1,2.4
			c0,1-0.3,1.8-1.1,2.6c-0.6,0.6-1.5,1.1-2.4,1.1c-1,0-1.8-0.3-2.6-1.1C244.8,67.9,244.5,67.1,244.5,66z M245.1,60.1V29.6h5.7v30.5
			H245.1z"/>
	</g>
	<g>
		<g>
			<path fill="#0000ff" d="M383.2,30.8c9.9-0.1,14.8,4.1,14.8,11.6c0,8-5.5,13.2-15.4,13.2c-1.3,0-2.8-0.1-4.3-0.2V70h-3.9V31.8
				C377.6,31.2,380.6,30.9,383.2,30.8z M389.3,50.9c2.9-1.3,4.7-4.1,4.7-8.1c0-5.9-3.6-8.5-10.5-8.5c-1.7,0-3.4,0.2-5.2,0.4V52
				c1.3,0.1,2.6,0.2,4,0.2C385,52.2,387.5,51.8,389.3,50.9z"/>
			<path fill="#0000ff" d="M407.4,32.3c1.6,0,2.6,1,2.6,2.6c0,1.7-1.2,2.9-2.9,2.9c-1.6,0-2.6-1-2.6-2.6
				C404.5,33.6,405.7,32.3,407.4,32.3z M409.1,43.3V70h-3.7V43.4L409.1,43.3z"/>
			<path fill="#0000ff" d="M428.9,42.7c3.6,0,6,1.5,8,4.1l-2,2.2c-2.1-2-3.9-3-6.3-3c-2,0-3.4,0.7-4.4,1.6c-2,1.6-3.3,4.7-3.3,9.2
				c0,7.1,3.2,10.5,8.2,10.5c1.8,0,4.3-0.6,6.7-1.5l1,2.9c-2.8,1.3-5.8,2-8.2,2c-7.2,0-11.6-5.2-11.6-13.4
				C417,48.6,421.8,42.7,428.9,42.7z"/>
			<path fill="#0000ff" d="M464.8,43.3c-0.1,0.6-0.6,1.3-1.2,2l-9,10l9.7,12.5c0.6,0.7,1.1,1.6,1.3,2.2h-4.1l-9.3-12.1l-4.3,4.6V70
				H444V26.9l3.8-0.1v31L461,43.3H464.8z"/>
			<path fill="#0000ff" d="M475.5,26.8v37.9c0,1.8,0.5,2.6,1.7,2.6c0.5,0,1.3-0.1,2.1-0.4l0.9,2.9c-1.4,0.6-2.8,0.9-4.1,0.9
				c-2.8,0-4.3-1.7-4.3-4.9V26.9L475.5,26.8z"/>
			<path fill="#0000ff" d="M496.3,42.6c6.4,0,9.5,4.7,9.5,10.6c0,1.4-0.2,2.9-0.4,4.3h-17.1c0.2,6.7,3.6,9.8,8.3,9.8
				c2.3,0,5-0.5,7.6-1.5l1,2.7c-3.1,1.4-6.2,2.1-9.3,2.1c-6.4,0-11.4-4.6-11.4-13.6C484.5,49,489.1,42.6,496.3,42.6z M488.5,54.7
				H502c0.1-0.6,0.1-1.4,0.1-2.1c0-3.9-2.1-6.8-6-6.8C491.7,45.8,489,49.1,488.5,54.7z"/>
			<path fill="#0000ff" d="M521.8,42.7c3.2,0,5.9,1.2,7.9,2.8l-1.7,2.5c-2-1.3-4-2-6.3-2c-3.2,0-5.2,1.5-5.2,3.9
				c0,2.8,2.8,3.9,5.9,5.1c4.3,1.6,8.2,3.2,8.2,7.9c0,4.8-4,7.9-9.8,7.9c-3.7,0-6.8-1.3-9.2-3.2l1.7-2.6c2.2,1.5,4.5,2.5,7.4,2.5
				c3.5,0,6-1.6,6-4.3c0-3.1-3.4-4.1-6.9-5.6c-3.9-1.5-7-3.2-7.1-7.3C512.7,45.5,516.9,42.7,521.8,42.7z"/>
			<path fill="#0000ff" d="M560.9,30.8c7.7,0,11.2,5.2,11.2,11.1c0,7.3-5.3,13.5-12.4,20.5l-4.2,4.2h17.2L573,70h-21.7l-0.4-3.6
				l5.1-5.2c7.6-7.6,12.1-13.2,12.1-19.1c0-4.4-2.4-7.8-7.4-7.8c-2.7,0-5.4,1-7.7,2.7l-1.8-2.5C553.8,32.1,557.3,30.8,560.9,30.8z"
				/>
		</g>
		<g>
			<path fill="#0000ff" d="M294.5,36.5c6.3,0,9.4,2.6,9.4,7.4c0,5.1-3.5,8.4-9.8,8.4c-0.8,0-1.8,0-2.8-0.1v9.3h-2.5V37.1
				C290.9,36.7,292.8,36.5,294.5,36.5z M298.3,49.3c1.8-0.8,3-2.6,3-5.1c0-3.7-2.3-5.4-6.7-5.4c-1.1,0-2.2,0.1-3.3,0.3v11
				c0.8,0.1,1.7,0.1,2.5,0.1C295.6,50.1,297.2,49.9,298.3,49.3z"/>
			<path fill="#0000ff" d="M309.9,44.4l4.1,6.4h0l4.2-6.4h2.3c-0.1,0.5-0.3,1-0.7,1.5l-4.5,6.6l5.1,7.5c0.3,0.5,0.6,1,0.6,1.5h-2.5
				l-4.9-7.3h0l-4.8,7.3h-2.3c0-0.5,0.3-1,0.7-1.5l5-7.6l-4.4-6.5c-0.3-0.5-0.6-1-0.7-1.5H309.9z"/>
			<path fill="#0000ff" d="M330.7,36.5c4.9,0,7.2,3.3,7.2,7.1c0,4.7-3.4,8.6-7.9,13.1l-2.7,2.7h11l0.1,2.2h-13.9l-0.3-2.3l3.3-3.3
				c4.8-4.8,7.7-8.4,7.7-12.2c0-2.8-1.5-5-4.7-5c-1.7,0-3.4,0.7-4.9,1.7l-1.2-1.6C326.2,37.3,328.4,36.5,330.7,36.5z"/>
		</g>
		<path fill="#0000ff" d="M277.5,13.3v70.8h70.8V13.3H277.5z M279.5,82.1V15.3h66.8v66.8H279.5z"/>
	</g>
</g>
</svg>
